<svg viewBox="0 0 1920 1920" fill="currentColor" xmlns="http://www.w3.org/2000/svg">
  <g>
    <path
      d="M1897.6 1268.5c-1.4-6.3.4-15.6-6-21.8a80.7 80.7 0 0 0 28.4 71v-8.3a83 83 0 0 1-22.4-41Zm16.5-455.4a34 34 0 0 0 5.9 3.3v-5c-12-7.3-20.4-16.5-10.8-32 .1 6 5.4 10.2 10.8 11.6v-3.5a10.7 10.7 0 0 1-6.9-10 12 12 0 0 1 6.9-.8v-3.6a20 20 0 0 0-4.9-.6c1.4-2 2.8-3.8 4.9-5v-3h-2c-17.3 11-22.7 35.1-3.9 48.6Z" />
    <path
      d="M1896.3 819c-13-8.2-28.1-22.3-27.7-45.5.2-12.7 7.3-27 14.8-35.7a58.4 58.4 0 0 1 36.6-18.1v-7a63.4 63.4 0 0 0-56.4 54c-3.9 33 18.2 52.2 36.7 61.3 6 3 13 4.4 19.7 6.3v-6.1c-8.3-2.5-16.7-4.6-23.7-9.1Zm-10.1-612c6.7.3 12.7-.3 17-2.4a12 12 0 0 0 5.8-5.5c2.6 1.4 7.4.5 8 4-5.9-.6-10 .5-13.3 2.3-4.6 2.5-7.9 6.2-12.5 8.6-3.7-.3-5.8-2.2-5-7Zm16.9-10.8c-1.4 4.2-7 4.2-12 5 2.2-3.5 6-5.5 12-5Zm-19.8 3c-3.2-9 1-17.8 9.9-17.9 2 6.5 10 7.2 15.8 10-8.5-3-21.1 1-25.7 7.8ZM1902 214c2.2-3 6.2-4.3 10.9-5-2.7 2.6-6 4.7-11 5Zm-2 73.3c-.2-13 9.3-23 9.9-33.7.5-9.2-9.1-17-3-23.8 19 6.1 3.7 47.5 13 60.8V246c-2.1-8.1-6.3-12.4-7-19 1.8-.2 3.3-.7 4-2 1.1.8 2.1 1.6 3 2.6v-12.3a42.7 42.7 0 0 1-26.8 12.7c-.1-3.1 1.2-4.8 2-7 11.4 0 19.3-3.8 24.7-9.9h.1v-13.8a24.8 24.8 0 0 0-5-3c.2-4.3-1.4-6.6-3-9-12.4-3.6-23-17-32.7-3.9-7 9.5.4 18.7 1 31.7 1.5 4.1 6.7 4.5 8 9a12 12 0 0 0 0 9.8c1.9 2.3 7.1 1.4 9.8 3 11.8 15.2 0 27.6-3 40.6-5.9 26.9 7 40.8 24.9 45.1v-6.2a26.7 26.7 0 0 1-20-27Zm11 1182c-3.7.3-6.5 6.9-8.6 6.8-8.9-20-35.2-27-44.7-7.7-10.3-22.6-37.3-32.4-41.8-9-1.6 8 3 19.5 12.1 26.8-.2-11.3-12-22.7-2.2-33.7 18.6-6.5 28.3 28.5 37.3 34.2 4.3-8-2.8-12.6 3-19.5 7.6-9 18.6-3.5 26 3.9 8 8.2 7.8 20.8 13.5 25.4 6.7-6.9-2.3-14 6-21a41 41 0 0 1 8.4 9.8v-9.6a24.9 24.9 0 0 0-9-6.4ZM1898.2 0h-6.4c3.4 10.4 15 20 28.2 25v-6.4c-10.4-3.7-18.7-9.7-21.8-18.6Zm-1.2 1914.4c-1.5-13.8 9.4-28.5 23-37.6v-5.7a64.5 64.5 0 0 0-17.2 13.6c-6 7.5-13.4 20.6-11.8 31.7.1 1.2.4 2.4.8 3.6h6.4c-.7-1.8-1-3.6-1.3-5.6Zm12.8-1861.6c-.3 1.5-1.6 1.7-2 3-3.2 12.5-11.3 38.3-2 50.5 2.3-15.4 1.9-37.2 7-52.5-1.3 0-1.4-1.2-3-1ZM1879 1791.6c4 23.2 11.4 51.4 28.8 64.4-6.6-19.5-19.7-41-25.8-64.4h-3ZM1850.4 50.9c9.3-3 10.5-14 18.8-17.9 3.1-2.1 9.6-1 8.9-6.9-15.9 1-26.6 12.2-27.7 24.8Zm-5 1863.5c8.3.2 25.6 4.3 29.7-1-5.3-3.6-26.2-6-29.7 1Zm-2-62.4h-3c4.5 13.8 24 26.2 40.7 27.7-7.2-10.6-29.4-14.8-37.7-27.7Zm-22.2-806c1-7.9 3.2-14.5 4.9-21.7 8 5.2 18.1 8.3 23.8 15.8-10.5 1.1-19.4 3.7-28.8 6Zm-7-36.6c2.4-5.5 6-10 9-14.8 1.8 4.2-2.1 11-1 17.8-2.9 2.3-4.3-3.1-8-3Zm0 38.6c-6.7 2.9-13.5 5.7-20.8 8-5.6-18 11.4-28.4 16.9-41.6 4.3.9 6.8 3.7 9.9 5.9-1 10.3-4.4 18-6 27.7Zm-11.9 37.7c-3.3-7-5.1-15.4-6.9-23.8 4.5-2 9.8-3.4 13.9-6 3 7.5-4.4 21.4-7 29.8Zm-14.8-48.6c-3.3-14.2-10-25-13.9-38.6 14 .6 22.3 6.8 31.7 11.9-6.1 8.7-10 19.8-17.8 26.7Zm-4 22.8c.5-1.9 2.2-2.5 2-5 4.1-.2 1.8 7-2 5Zm43.6-43.6c.4-12 5.3-24.1 4-34.6-14.6 1-13.8 17.2-22.8 23.7-10-5.6-26.8-17.9-40.6-9.9-.6 19 18 34.2 15.8 51.5-1 7.3-10.4 10.4-7 19.8 4.5 3 9-1.3 13-2 4.3 9.7 5.4 27.6 14.8 28.8 8.5-10 9.3-27.7 14.9-40.6 12.5-5 30.2-4.8 41.6-11-6.5-13.2-24.2-15.3-33.7-25.7Zm-84.6 588.3c-26.6 4.9-42.2 52.4-19.8 76.3 9.6 10.1 53.2 20.1 58.5 3 5.3-17.3-25.2-35.4-34.7-19.9 10.7 0 26.7 1.8 28.7 15.9-11.5 11.3-29 7.3-38.6 3-34.3-15.7-17.7-87.8 27.7-70.4 21.9 8.4 40.8 39.5 40.6 65.4-.2 37.5-38.7 44.9-75.2 39.6 3.5 6.1 17.8 7.9 26.7 8 28.3.1 54.3-18.4 54.5-47.6.2-31-26.6-81-68.4-73.3Zm21.3-1332c-19.1-5.1-7.4-39.4-11.6-49.2-8.2 4.2-4.8 12-13.6 14.4-11.2 3-17.3-7.6-19.1-17.8-2.2-11.4 5.1-21.7 3-28.7-9.3 2-6 13-16.7 14-5.4-19.7 5.3-32.2 5.3-45.2-8-1.2-6.2 10.7-15 11.7-11-12-.1-29.4-.3-42.2-11 2.5-13.3-7.1-22.4-7.2 1.6 9.5 9 10.8 15.4 13.5-2.3 11-7.9 31.8 3.2 41.6 2.2 1.3 7.2-1.3 9.1.4-3 8-4.7 23.8 1.7 33 3.2 1.8 9.2-2.2 10.9-1-3.9 21.6 13.9 42.1 32.6 31.6-4.2 24.5 12.6 47.8 29.5 31 5.9-5.8 8.6-17.8 5-29-6.1 9.4-2.7 25.5-17 29.1Zm12.9 255.4.9 1.7c15-.6 29 2 42.9 4.6-8.3-11.9-27-12-43.8-6.4Zm-33.4 745.7c-15.2 15.6-38.8 5.9-62.5 11.6-16.3 4-22.5 15.8-37.1 22.5-.4-3.3-2-5-3.8-6.5 15.5-13 32.7-30.8 57.2-38 13.4-3.8 27-6.1 24.4-20.8-.8-4.9-5.5-6-9.4-11.9-2-3.1-2.5-7.6-4.1-9.4a66.3 66.3 0 0 0-23.5-12.1c-25-1.1-26.3 29-32.7 42.9-6.3 14-17.2 23.7-24.9 33-2.9-2.1-6.4-3.3-7.8-7.1 5.2-9.3 14.4-13.8 19.3-21.3 9.7-14.8 6.8-33.4 14-48.6 6.4-13.3 16.8-26.8 34.2-31.1 56.7-14 91.3 61.2 56.7 96.8Zm-36.5-37.4c0 5-3.2 7.6-6.8 9.8-3-4.3 2.8-8.2 6.8-9.8Zm-11-16.6c3.7 6.7.3 14-6 15.7-7.5-4.2-1.5-15 6-15.7Zm-4.6 19.5c8-.4 9.5-10.5 10.7-18.3 2.6 3.1 6.3 5 6.4 11.2-7.5 2.1-13 5.8-13.3 13.6 2 0 .7 4.3 3.4 3.6 10.9.5 9.2-8.8 14.4-12.8 11.2 6.3 1.9 20-5.3 21.6-31.6 7.3-52.7 24.8-70.2 38.5-3-2.6-5.8-5.4-8-9 6.4-7.8 17.9-18 24.9-33 9.5-20.4 14-53.9 39.3-37.7-13.4 1.2-13.8 22.8-2.3 22.3Zm-81.5 43.8c.2-.8.7-1.2 1.9-1.2 11.1 8.9 22.7 17.2 27.1 34.6-14-4.8-27.6-16.1-29-33.4Zm-9.8 9.2c-.2-1.3 1.6-1.1 1.7-2.2a97.3 97.3 0 0 0 34 33.8c-19.8 4.5-32-15.6-35.7-31.6Zm14.2 35.2c-11.5-1.6-18-9.5-19.8-23.6 1.2 0 2.4 0 2.2 1.8 3.2 2.6 6 7.9 9.4 11.8 3.4 3.8 9.7 7.1 8.2 10Zm-22.3-11.3c1 6 5.4 7.6 7.5 12-5.7 1-11.2-8.2-7.5-12Zm66.3-127.8c-12.9 15.7-14.1 34.7-20.4 54.4a82.3 82.3 0 0 1-24 31.8c-2 1.6-4.6.5-6.8 1.9-4 2.6-4.8 11-11.7 10.4-2.8 10-7 18.9-10.5 28.2-.6 9.6 4.1 19.6 14.4 20.2 2.8.2 5-2.6 8.6-3 2.9-.4 6.1 2 9.2 1.8.7 0 17.3-2.8 18.6-3.2 7.5-2.8 10.2-12.4 11.8-17.4 13.4-7.3 20.3-19 36.2-22.4 22-4.6 44.2 2.8 59.8-9.3 17-13.2 23-39.2 17-65-8.8-37.8-70.4-67.3-102.2-28.4Zm59.6-344.6c1-8.6-2.5-12.7-7-15.8-4.7-.4-8.2.3-11.9 1-3.4-33.9-33.5-15-39.6 1-2.7-62-77.5 19-28.7 20.8-2.6-6.8-9.2-3.7-10.9-10-2.9-11 15.3-29.8 23.8-28.7 15.6 2.2 7.3 29.5 8.9 40.6 10.9-5.6 16.5-39.5 31.7-37.6 7.4 1 8 10.4 9.9 18.8-4.8 4.1-14.8 19.3-4 23.8 12.3-1.6 4-23.9 17.9-23.8 9 5.2.3 22.2 2 28.8 10.7-4.5 13.3-17.7 21.7-24.8 3.3-2.7 8-4.8 12.9-6 3.8.9 1.6 7.7 7 7 3.7-24.6-28.9-5.4-33.7 5ZM1743 476c-1 .9-.7 2.3-1.9 3 .5 1.7 1.6 1.2 2.2 2.3 11.6-11.2 31.4-20.2 44.3-29-15-3.1-34.8 15.4-44.7 23.7Zm8.1 103.8a43 43 0 0 0 17.9 21c0-7.5-10.6-20.4-17.9-21Zm-69.1-93.2c-10.6 3.4-19.2 15.7-23.3 24.5-8.2 17.2-9.9 68.4 22 64 24.6-3.2 39.4-50 17.3-59.9-14.5 5.8-17.9 19.4-12 30 7.1-6.7 0-18.4 12-23.4 17.6 18.1-17.1 68.3-35.2 36.7-10.6-18.6-1.5-57.9 20-65.7 24.9-9 49 26.2 54.2 53.1 4.8-9.3-.3-21.9-4.8-30.6-9.9-18.7-34-33.8-50.1-28.7Zm31.6-60.2c-10.8 6.5-16.2 21-10.3 35.7 5.7-2 1.7-7.3 2.4-11-.1-9.2 9.3-15 7.9-24.7Zm-17.3 208.4c5.9-3.8 6.8-12.3 8.7-18.5 1.8-6 6.4-13.6 2.9-19a60 60 0 0 0-11.7 37.5Zm-59.4 1182.8c7.8-2.6 15.2-13.6 14.7-22.6 1 6.4-.5 14.1 5.1 18-2.5 8.5-12.1 10-19.8 4.6Zm8.3-18.3c-1.3 6-4.1 9-8 10.1 2-4.5 3.6-9.9 8-10Zm-20.4 6.5c3.5-3.6 7.9-5.8 11.4-9.4 2.8-2.7 5.1-6.4 6.2-12.3 3.1 1.5 1 5.9 1.6 8.7-2.7.5-5 1.9-6.8 4a37.1 37.1 0 0 0-7.1 15.7c-4.8-.5-6.1-3-5.3-6.7Zm10.8-19.5c-2 4.2-4.2 7.8-7.8 9 1.7-4.6 4.5-7.1 7.8-9Zm-16.4 13.8c-2.3.2-4.3 1-7.2 0a41.6 41.6 0 0 1 22.2-23.5c1 .5 1.2 1.5 1.4 2.5-7.4 3.5-13.2 10-16.4 21Zm-38-68.6c.2 2 8.8 3.6 4.6 5.5-.7-1.8-7.8-4.2-4.6-5.5Zm1.9 15c-1-7.4-10-7.3-16.6-6.8-1.2-5.8 4.2-7.7 7.8-9.2 3 3 10.3 14.1 16.3 7.8 1-6.4-5.7-8.6-12.4-10.8 1.4-8 9-6.7 12.7-4.5 6.9 4 3.3 21.5 7.2 28.8 7.2 13.6 20.1 15.8 23.3 26.3-1.4.3-2.3 1.5-3 3.3-7.2-3-10-9.8-20.6-14.2-14.4-6.1-42.8-5-35.1-21.4 3.8 3.3 16.2 12.7 20.4.7Zm-4.4.8a110 110 0 0 0-3.6 2c-4.8-.8-6.4-3.4-7.5-6.3 3.7.5 6.4-1 11 1.2-.3 1.2.9 1.6.1 3Zm13.2 29.5c-10.4-2.3-22.7 4-35.1.2-38.6-11.6-15.8-66.6 11.8-77a41 41 0 0 1 27.4 1.7c30 13.4 15 46.8 31.4 69.9 1.1.5.3 1.2-.5 1.9-11.7-3.2-17.3-16.6-26.1-24-1.4-12.8-2.2-37.6-22.3-30.1-2.4 9-8.6 7.7-14.2 13.4.1 11.4-7.5 11-7.3 18.5.5 19.5 56.2 12.5 57 35-8.2 4-13-7.4-22.1-9.5Zm58.5 11.7c-1.3-8.6-6.3-15.2-16.2-19.1-14.8-16.1-6.8-38.6-16-55.1-9-15.7-32.2-26.4-49.9-20.5-36.7 12.3-62.4 87.5-1.5 91.3 13.4.8 28.6-7.2 39.9 8.3.8 3-1.6 7.9.1 10.4a13 13 0 0 0 9.5 2.7c4 2.4 2.9 7.5 6.4 10 12.3 4.3 19.1 14 30.2 9.8 15.2-5.7 5.3-19.6 5.2-32.5-1.8-2.2-3.5-4.4-7.7-5.3Zm22.1-1314.9c3-6-8.2-19.8-12-27.2-4.7 6.2 6.5 24 12 27.2Zm-46 148.6 1.2 2.7c6.1-1.6 11.3-8.3 15.7-13 4.5-4.8 10.8-9.6 11.3-15.4-12.9 4.4-19.7 17.3-28.2 25.7ZM1602.2 469l1.3 2.7c15.2 1.8 28.5 20 41.3 21.9-8.6-14.3-28.3-26.6-42.6-24.6Zm-37.7 61 1.3 2.7c23.7-4.6 48.7-2.2 69.2-4.7-19.3-10-48-4.5-70.5 2Zm-68.3-317.4c-26.7 4.9-42.3 52.4-19.9 76.3 9.6 10.1 53.2 20.1 58.5 3 5.3-17.3-25.2-35.4-34.7-19.9 10.7 0 26.7 1.8 28.7 15.9-11.5 11.3-29 7.3-38.6 3-34.4-15.7-17.7-87.8 27.7-70.4 22 8.4 40.8 39.5 40.6 65.4-.2 37.5-38.7 44.9-75.2 39.6 3.5 6.1 17.8 7.9 26.7 8 28.3.1 54.3-18.4 54.5-47.6.2-31-26.6-81-68.3-73.3Zm11.8 760.9c-32.9-5.8-51.8 26.1-50.6 56.4 2.4 2.2 2.5 6 5 9 9.4 11.2 45.3 25.7 59.4 13.8-21-2-51.2-5-57.4-22.8-9-25.4 20-54.8 42.5-50.5 16 3 22 22 14 33.7-5 7-19.9 18.2-24.8 5 2.1-5.5 9.8 4 9.9-4-2-3.6-8.3-5.1-13-3-3.7 2.7-3.8 12-.9 15.9 21 9.5 42.4-11.1 38.6-31.7-1.8-10-13.4-20.2-22.8-21.8Zm-91-375.6c4.2-10.5 13.3-30 4-41.6-2-1.7-7.3 0-8.9-2 4.4-7.3 8.7-22.6 4-32.7-2.9-2.4-9.5.5-11-1 7.6-20.6-6.4-43.9-26.6-36.6 8.3-23.5-4.3-49.4-23.8-35.7-6.8 4.8-11.5 16-10 27.7 7.7-8.2 7-24.6 21.9-25.7 17.9 8.3.5 40.1 3 50.5 8.7-2.7 6.7-11 15.8-11.9 11.6-1.1 15.7 10.5 15.8 20.8.1 11.6-8.8 20.5-7.9 27.7 9.6-.3 8.1-11.7 18.8-10.9 2 20.3-10.6 30.9-12.9 43.6 7.7 2.6 8-9.5 16.9-8.9 8.7 13.7-5 29-7 41.6 11.2-.6 11.9 9.3 20.8 10.9.1-9.6-7-12.2-12.8-15.8Zm-51.3 264.3c1.3-11.5 4.9-20.8 6.9-31.6 12.2 7.6 23.7 15.9 38.6 20.8-10.5 8.3-29.1 8.4-45.5 10.8Zm-7 1c-6-.7-9 1.6-14.8 1 1.4-11.4-4.8-20.1-3-28.7 1.8-8.6 12-11.3 14.8-18.8 5 2.3 8 6.5 12 9.9-3.5 11.7-6 24.4-9 36.6Zm-9.9 40.6c-2.4-10-2.4-22.6-4-33.6 5 .7 7-1.7 12-1-1.5 12.7-5.6 22.8-8 34.6Zm-9.9-78.2c-.7-12.1-4.4-21.4-5-33.7 1 5 17.7 15.9 17.9 19.8.2 5.1-8.8 9.5-12.9 13.9Zm-31.7 46.6c8.1-11 18.8-19.6 26.8-30.8 4 5.3 3.2 15.3 4 23.8-11 1.6-21.1 4-30.8 7Zm71.3-80.3c.5 8.4-6.8 17.6-7.9 27.8-4.7-1-5.3-6-9.9-7 4.1-8.7 12.3-13.4 17.8-20.8Zm16.9 46.6c-8.9-4.9-15-9.6-19.8-15.9 2.4-15 13.3-26.9 12.8-41.6-15 .9-21.1 19-33.6 25.8-9-7.6-13.3-19.8-23.8-25.8-9 13 3.4 34.5 3 51.5-11.7 16.8-29 27.8-38.7 46.6 12.8 3 27.6-7.7 43.6-8 3.6 15.7-3 41.3 10 47.6 9-13 8.9-35.3 15.8-50.5 10.3-1.5 20.2-1.4 31.7-4 7.8-1.8 23.9-6 22.7-13.8-.8-6-18.2-9-23.7-12Zm-65.5 920.7c-2.5-2.7 2.8-4.5 2.4-8.2 5.7 2 10.4 5.3 15.4 8-4 2.1-11.2-1.4-17.8.2Zm-27-33c13.9-4.2 24.3-11.5 37.5-16.4.4 14-5.2 22.7-9.7 32.4-9.1-5.5-20.4-8.6-27.9-16Zm19 31.5c-10.4-.3-18.3-3.2-28.1-4-3.3-6.6-6.6-13.1-9.3-20.3 17.5-6.8 29 9.4 42.6 14-.6 4.4-3.2 7.1-5.3 10.3Zm-17.8 31c-1.8-10.4-5-19.1-7.9-28.3 8 .4 14.8 2.3 22.1 3.5-4.7 8.3-7 18.6-14.2 24.8Zm-48.7-44.4c6.7-3.8 15-6.1 23.3-8.5 2.4 4.4 4 9.6 6.8 13.4-7.2 3.6-21.5-2.9-30-4.9Zm24.4-20.5c2 .3 2.7 2 5.1 1.7.6 4-6.8 2.3-5-1.7Zm56 21c5-10.2 16.1-27.8 7.2-41.1-18.8.7-32.8 20.3-50.3 19.2-7.3-.4-11-9.6-20.2-5.5-2.7 4.6 1.9 8.7 2.8 12.7-9.3 5-27 7.2-27.6 16.7 10.5 7.8 28.2 7.4 41.5 12.1 5.8 12.1 6.8 29.9 13.6 40.8 12.9-7.4 13.8-25.2 23.5-35.3 12-.5 24.4 3.6 34.8 1.6-2-14.5-18.1-12.6-25.2-21.2ZM1273.4 215c-4.6-6.8-17.3-11-25.8-8 6-2.7 13.8-3.4 15.9-9.8 8.9 0 13 8.9 9.9 17.8Zm-19.8-3c6-.4 9.7 1.5 11.9 5-5-.7-10.5-.8-11.9-5Zm11.9 17.8c-4.6-2.4-8-6-12.5-8.5-3.4-1.8-7.5-3-13.3-2.4.5-3.4 5.4-2.6 8-4a12 12 0 0 0 5.7 5.6 37.5 37.5 0 0 0 17 2.4c.9 4.8-1.2 6.7-5 7Zm-21.8-5c4.6.8 8.7 2 10.9 5-5-.3-8.2-2.3-10.9-5Zm19.8 19a41.6 41.6 0 0 1-28.7-15c.2-1 1-1.5 2-2 5.4 6.2 13.2 10 24.7 10 .8 2.2 2.1 3.8 2 7Zm-57.4 48.4c1.9-.7 1-9.4 4-5.9-1.6 1.2-1.8 8.7-4 6Zm14.8 10c-.6-3.7-2.7-6-2-11 1.3 0 1.4-1.2 3-1l3 3c.5 4.9-1.6 7-4 9Zm4 3.9c2.1-4.6 7.8-19-5-19.8-6.7 3-4.2 11.7-2 17.8-5.2 2.8-8.5-1.9-10.9-5 2.1-3.7 10.8-13.7 3-17.8-6.4.9-6.7 7.9-7 14.9-8 .9-8.9-6.8-7.8-10.9 2-7.7 19.8-9.1 25.7-14.9 11.1-10.6 9.7-23.7 18.8-29.7.7 1.4 2.1 1.9 4 2-.9 7.8-6.5 12.4-8 23.8-1.8 15.4 7.2 42.5-10.8 39.6Zm31.7-3c-.5 40.4-59.7 33.7-77.3 10a41 41 0 0 1-6-26.8c4.6-32.5 40.9-27.3 58.5-49.5.2-1.2 1.1-.6 2 0 .1 12-11.1 21.2-15.9 31.7-12 4.9-35.5 12.4-22.7 29.7 9.3-.2 9.7 6.2 16.8 9.9 10.9-3.2 12.6 4.2 19.8 2 18.6-5.9-3.5-57.6 17.8-64.4 6.2 6.7-3.4 14.5-3 23.8.7 10.6 10.1 20.7 10 33.6Zm-12-102c-1.5 2.4-3.2 4.7-2.9 9-8 3.6-12.9 10.2-13.9 20.7-11.4 18.7-35.1 17.2-48.5 30.7-12.6 12.8-16.5 38.2-6 53.5 22 32 101.4 35.9 88.2-23.8-2.9-13-14.7-25.4-3-40.6 2.7-1.6 8-.6 10-3 1.2-2.8 1.2-7 0-9.8 1.1-4.5 6.4-4.8 7.9-9 .6-12.9 8-22.2 1-31.6-9.7-13-20.3.3-32.7 4Zm-72.5 281.8c3.4-4.7 8.1-11.8 5-17.9-9.3-17.7-42.8 11.7-47.6 18.8-9-28.7-43.1-4.1-45.5 15-16.6-1.1-20.7 10.3-27.8 18.7-7.4-10.9-13.1-26.3-28.7-26.7-36.6-1-42.7 91.3-15.9 111-.2-7.2-4.7-13.6-6.9-21.9-2-8-4-17.3-4-27.7.3-21.9 7.8-56.1 26.8-55.5 9.8.4 24 17.7 25.8 29.7 1.1 8-6 19.5 5 21.8 5.8-3.2 4.1-15.7 1.9-21.8 4.6-10.5 8.3-22 23.8-21.7-.2 7.4-.6 15 6.9 14.8 8.2-3 2-15 0-19.8 3.6-11.6 13-25.6 24.7-23.8 18.7 3 1.6 26.6 6 37.7 9.8-1.4 6.9-12.6 9.9-19.8 5.3-12.7 25.6-31.5 39.6-24.8 1.5 11-9 10-9.9 18.8 9.5-.5 15.4 7.6 22.8 6-.8-6.9-8.1-7.1-11.9-11Zm-47.5 230.7c.8 9.4 15.3 14.9 22.8 6-4.6-4.5-14.3 1.2-16.9-6 1.4-16.9 42-25 42.6-8.9.6 18-21.2 50.4-39.6 49.5-15.7-.7-31.2-27.8-32.7-50.5-2.5-35.8 24.4-62.3 54.5-43.6-1-7.7-8.4-10.9-13.9-11.8-32.5-5.8-48 26.6-46.6 55.4 1.3 27 22.3 63 46.6 55.5 14.4-4.5 40.8-36 37.6-56.5-3.7-24-56.3-10-54.4 11Zm20.1 743.9c-7.5-4.8-20.4-11-26.7-7.9 33.4 15.5 61.7 42.7 41.5 74.2-14 21.9-46.7 37.7-69.6 32.8-47.6-10.2-22.3-79.7 15-74.1 10.4 1.5 27.3 7.7 30.8 23.5-9.4 10.7-23.8 3.4-32.7-2.3-.6 18.2 34.9 19.6 39.8 2.2 5-17.3-37-32.6-50.6-29.3-31.8 7.8-44.6 56.1-25 74.8 31 29.1 80.6 1.8 97.3-24.3 15.7-24.6 4-54.3-19.8-69.5Zm-20.5 373.7c-17.6 23.7-76.7 30.4-77.2-10-.2-12.8 9.3-23 9.9-33.6.5-9.2-9.1-17-3-23.8 21.3 6.9-.8 58.6 17.8 64.4 7.3 2.3 9-5.2 19.8-2 7.1-3.7 7.5-10 16.9-9.9 12.8-17.2-10.8-24.8-22.8-29.7-4.7-10.5-16-19.6-15.8-31.7.9-.6 1.7-1.2 2 0 17.6 22.2 53.8 17 58.4 49.5a40.8 40.8 0 0 1-6 26.8Zm-41.6-10.9c-2.4-1.9-4.5-4-4-9l3-2.9c1.7-.3 1.8 1 3 1 .7 5-1.3 7.2-2 10.9Zm14.9-10c-2.2 2.8-2.4-4.7-4-5.8 3-3.5 2 5.1 4 5.9Zm-4-10.8c-7.7 4 1 14 3 17.8-2.4 3-5.7 7.7-10.9 5 2.3-6.1 4.8-14.8-2-17.8-12.7.7-7 15.1-5 19.8-18 2.8-9-24.2-10.8-39.7-1.4-11.3-7-16-8-23.7 2-.2 3.4-.7 4-2 9.2 6 7.8 19 18.8 29.7 6 5.7 23.9 7.1 25.8 14.9 1 4 .1 11.7-8 10.8-.2-7-.4-14-6.9-14.8Zm-53.5-37.6c0-3.1 1.3-4.8 2-7 11.5 0 19.4-3.7 24.8-9.9.9.5 1.8.9 2 2a41.6 41.6 0 0 1-28.8 14.9Zm19.9-18.9c-2.7 2.6-6 4.7-11 5 2.3-3 6.3-4.3 11-5Zm-26.8-2c6.7.3 12.7-.2 17-2.4a12 12 0 0 0 5.8-5.5c2.6 1.4 7.4.6 8 4-5.9-.6-10 .5-13.3 2.3-4.6 2.5-7.9 6.2-12.5 8.6-3.7-.3-5.8-2.2-5-7Zm16.9-10.8c-1.5 4.2-7 4.2-12 5 2.2-3.5 5.9-5.5 12-5Zm-19.8 3c-3.2-9 1-17.8 9.8-17.9 2.2 6.5 10 7.2 15.9 10-8.5-3-21.1 1-25.8 7.8Zm45.5 15.8c-1-10.6-6-17.2-13.9-20.8.3-4.3-1.3-6.6-3-9-12.3-3.6-23-16.9-32.6-3.9-7 9.5.3 18.8 1 31.7 1.5 4.1 6.7 4.5 8 9a12 12 0 0 0 0 9.8c1.9 2.4 7.1 1.4 9.8 3 11.8 15.2 0 27.6-3 40.6-13.1 59.6 66.2 55.7 88.2 23.8 10.5-15.4 6.7-40.7-6-53.5-13.3-13.5-37-12-48.5-30.7Zm46.1-729c-17.6 23.7-76.7 30.4-77.2-9.9-.2-13 9.3-23 9.9-33.7.5-9.2-9.2-17-3-23.7 21.3 6.8-.8 58.5 17.8 64.3 7.2 2.3 9-5.2 19.8-2 7.1-3.7 7.5-10 16.9-9.9 12.8-17.2-10.9-24.8-22.8-29.7-4.7-10.5-16-19.6-15.9-31.7 1-.6 1.8-1.2 2 0 17.7 22.3 53.9 17 58.5 49.6a40.9 40.9 0 0 1-6 26.7Zm-41.6-10.9c-2.4-1.9-4.5-4-4-8.9l3-3c1.6-.3 1.7 1 3 1 .7 5-1.4 7.3-2 11Zm14.9-9.9c-2.2 2.8-2.4-4.8-4-6 2.9-3.4 2 5.2 4 6Zm-4-10.9c-7.7 4 1 14 3 17.8-2.4 3.1-5.7 7.7-11 5 2.3-6.1 4.9-14.8-1.9-17.8-12.7.7-7.1 15.2-5 19.8-18 2.9-9-24.2-10.8-39.6-1.4-11.4-7.1-16-8-23.8 1.9-.2 3.3-.7 4-2 9.2 6 7.7 19 18.8 29.7 6 5.8 23.8 7.2 25.8 14.9 1 4 .1 11.7-8 10.9-.2-7-.5-14-6.9-14.9Zm-53.5-37.6c0-3 1.2-4.8 2-7 11.5 0 19.4-3.7 24.8-9.9.8.5 1.8 1 2 2a41.5 41.5 0 0 1-28.8 14.9Zm19.8-18.8c-2.7 2.5-6 4.6-10.9 5 2.2-3.2 6.3-4.4 11-5Zm-26.7-2c6.7.2 12.7-.3 17-2.5 2.5-1.2 4.5-3 5.8-5.4 2.6 1.3 7.4.5 7.9 4-5.8-.7-9.9.4-13.3 2.2-4.5 2.5-7.8 6.2-12.4 8.6-3.8-.2-5.8-2.1-5-7Zm16.8-11c-1.4 4.3-7 4.3-11.8 5 2.1-3.4 5.8-5.4 11.8-5Zm-19.8 3c-3.2-8.9 1-17.7 10-17.8 2 6.5 10 7.2 15.8 10-8.5-3-21.2 1-25.8 7.9Zm45.6 15.9c-1-10.6-6-17.2-13.9-20.8.3-4.2-1.4-6.5-3-9-12.3-3.5-23-16.9-32.6-3.9-7 9.5.3 18.8 1 31.7 1.5 4.1 6.7 4.5 7.9 9-1.3 2.8-1.3 7 0 9.8 2 2.4 7.2 1.4 9.9 3 11.8 15.2-.1 27.6-3 40.6-13.2 59.7 66.2 55.7 88.2 23.8 10.5-15.3 6.6-40.7-6-53.5-13.3-13.5-37.1-12-48.5-30.7Zm13.9 198.1c-41.8-7.7-68.6 42.3-68.4 73.3.2 29.2 26.2 47.7 54.5 47.5 9 0 23.2-1.8 26.7-8-36.5 5.4-75-2-75.2-39.5-.2-25.9 18.7-57 40.6-65.4 45.4-17.4 62 54.7 27.7 70.3-9.6 4.4-27.1 8.4-38.6-3 2-14 18-15.8 28.7-15.8-9.5-15.5-40 2.6-34.7 19.8 5.3 17.2 48.9 7.2 58.5-3 22.4-23.8 6.8-71.3-19.8-76.2ZM1045 175c4.2-10.4 13.2-30 4-41.5-2-1.7-7.4 0-9-2 4.5-7.2 8.8-22.6 4-32.7-2.8-2.4-9.4.5-10.9-1 7.6-20.5-6.5-43.8-26.7-36.6 8.3-23.5-4.3-49.3-23.8-35.7-6.8 4.8-11.4 16.1-9.9 27.8 7.7-8.2 7-24.7 21.8-25.8 18 8.3.5 40.1 3 50.5 8.8-2.7 6.8-11 15.8-11.9 11.6-1 15.8 10.5 15.9 20.8.1 11.6-8.8 20.5-8 27.8 9.6-.4 8.2-11.7 18.9-11 2 20.4-10.7 30.9-12.9 43.7 7.7 2.5 8-9.6 16.8-9 8.8 13.7-5 29-6.9 41.6 11.2-.6 11.8 9.3 20.8 11 0-9.7-7-12.2-12.9-16ZM902.1 1416.2c-13.6-17-1-39.2-4-63.4-1.9-16.8-12.8-24.3-17.7-39.6 3.3 0 5.2-1.4 6.9-3 11 17 26.6 36.2 30.7 61.4 2.2 13.8 3 27.5 17.8 26.8 5-.3 6.6-4.8 12.9-8 3.4-1.7 7.9-1.5 9.9-3a66.6 66.6 0 0 0 14.9-21.7c4-24.8-25.6-29.7-38.7-37.7-13.1-8-21.4-20-29.7-28.7 2.4-2.6 4-6 8-7 8.6 6.4 11.8 16 18.8 21.9 13.5 11.4 32.3 10.7 46.5 19.8 12.4 7.9 24.6 19.8 26.8 37.6 7 58-71.9 83.3-103 44.6Zm41.6-31.7c-5-.7-7.1-4-8.9-8 4.7-2.5 7.8 3.9 9 8Zm17.9-9c-7.2 3-14-1.3-14.9-7.8 5-7 15 .3 14.9 7.9Zm-18.8-6.9c-.6 8 9.2 10.7 16.8 13-3.4 2.1-5.6 5.5-11.9 4.9-1.2-7.7-4.2-13.7-11.9-14.9-.3 2-4.4.3-4 3-1.7 10.7 7.7 10.2 11 15.8-7.7 10.3-20-.6-20.8-7.9-3.5-32.2-18.2-55.3-29.8-74.3 3-2.6 6.1-5.1 10-7 7 7.4 15.7 20 29.7 28.8 19.1 12 51.8 20.5 32.6 43.6.5-13.4-20.9-16.5-21.7-5Zm-70.4-61.4c6.5-13.3 19.4-25.5 36.7-24.7.8.2 1.1.8 1 2-10.2 10-19.8 20.4-37.7 22.7Zm28.8-35.6c1.3 0 .9 1.7 2 2a97.4 97.4 0 0 0-37.7 29.7c-2.2-20.2 19.4-30 35.7-31.7Zm-11-7c0 1.3-.2 2.4-2 2-2.9 2.9-8.5 5-12.8 8-4.2 2.8-8.2 8.7-10.9 6.9 3-11.3 11.6-16.8 25.8-16.9Zm-11.8-4c-6 .3-8.1 4.5-12.9 6-.2-5.7 9.6-10 12.9-6Zm67.3 54.6a82 82 0 0 1-28.7-27.8c-1.3-2.1.1-4.6-1-7-2.1-4.3-10.3-6-8.9-12.8-9.5-4-17.9-9.1-26.7-13.8-9.5-1.8-20 1.7-21.8 11.8-.5 2.8 1.9 5.3 2 9 0 2.8-2.9 5.8-3 8.9 0 .6.6 17.4 1 18.8 1.8 7.8 11 11.6 15.8 13.9 5.6 14 16.5 22.3 17.8 38.6 2 22.4-8 43.4 2 60.4 11 18.6 36.1 27.6 62.4 24.8 38.7-4.2 75.4-61.8 40.6-98.1-14-14.7-32.6-18.2-51.5-26.7Zm-13.5-989.5c-2.5-2.7 2.8-4.4 2.4-8.1 5.7 2 10.3 5.2 15.4 7.9-4.1 2.2-11.2-1.3-17.8.2Zm-27-33c13.9-4.2 24.3-11.5 37.5-16.4.4 14-5.2 22.7-9.7 32.5-9.1-5.6-20.4-8.6-27.9-16Zm19 31.5c-10.4-.2-18.4-3.1-28.1-4-3.3-6.6-6.6-13-9.4-20.2 17.6-6.8 29.1 9.4 42.7 14-.7 4.4-3.3 7-5.3 10.2Zm-17.8 31c-1.9-10.3-5-19-8-28.2 8 .4 14.8 2.3 22.2 3.4-4.8 8.3-7.1 18.6-14.2 24.8ZM857.7 311c6.6-3.9 15-6.2 23.2-8.6 2.4 4.4 4 9.6 7 13.5-7.4 3.6-21.6-3-30.2-5Zm24.4-20.6c2 .3 2.6 2 5.1 1.7.6 4-6.8 2.3-5-1.7Zm56 21c5-10.2 16-27.8 7.2-41.1-18.9.7-32.9 20.4-50.3 19.3-7.4-.5-11-9.7-20.3-5.6-2.6 4.6 2 8.8 2.9 12.7-9.3 5-27.1 7.3-27.7 16.8 10.6 7.8 28.3 7.3 41.5 12 5.9 12.2 6.8 29.9 13.7 40.8 12.8-7.4 13.8-25.1 23.4-35.3 12-.4 24.5 3.6 34.9 1.6-2-14.4-18.1-12.6-25.3-21.1Zm-38.8 413.1c-5.5-6.7-11-7-16.3-5.9-3.5 3.1-5.4 6.2-7.4 9.3-27-20.8-34 14.2-26.5 29.5-47-40.7-39.5 69.4-4.7 35.1-6.7-2.7-9 4.2-14.7 1.1-10-5.4-11.2-31.7-4.5-37 12.4-9.8 26.4 15 35.6 21.5 3.4-11.8-17.3-39.2-5.5-49 5.8-4.7 13 1.5 20.5 5.8-.3 6.3 3.8 24 14.5 19.2 7.3-10-14.7-19.2-5-29.2 10-3.1 16.3 14.9 22.2 18.3 4.2-11-3.7-21.9-3-32.9.3-4.2 2-9 4.6-13.4 3.2-2.2 6.6 4.1 9.8-.3-15.4-19.6-23.8 17.3-19.6 27.9Zm-39.8 927.7c-32.9-5.7-51.8 26.2-50.5 56.5 2.3 2.1 2.4 6 5 9 9.3 11.2 45.3 25.7 59.3 13.8-21-2-51.2-5.1-57.4-22.8-9-25.4 20-54.8 42.6-50.5 16 3 21.9 22 13.8 33.7-4.8 7-19.8 18.2-24.7 5 2.1-5.5 9.8 4 9.9-4-1.9-3.6-8.3-5.1-12.9-3-3.8 2.7-3.9 12-1 15.8 21 9.5 42.5-11 38.7-31.7-1.9-10-13.5-20.1-22.8-21.8Zm3.5-666c-28-19.7-59 6.3-58.5 31.7.3 10.2 6.6 21.8 15.9 23.8 19.4 4.2 36.3-14.1 26.7-29.7-6-2-17-2.4-14.8 7 5 4.4 6.8-5.6 11.9-1-2.2 24-33.4 22.2-33.7-1-.2-13.2 13.8-31.1 28.7-31.8a36 36 0 0 1 35.7 35.7c-1 26-33.4 45-61.4 41.6-31.3-3.9-53.4-31.6-59.5-59.4-1.3-6.3.5-15.6-6-21.8-4.7 46.1 28.1 83.4 66.4 87.1 32.3 3.2 66.8-19 66.4-49.5-.2-13-9.6-27-17.8-32.7ZM703.3 251.7c1-8.6-2.5-12.7-7-15.8-4.6-.4-8.2.3-11.8 1-3.5-33.9-33.6-15-39.7 1-2.7-62-77.5 19-28.7 20.8-2.6-6.8-9.2-3.7-10.9-10-2.9-11 15.3-29.8 23.8-28.7 15.6 2.2 7.3 29.5 8.9 40.7 10.9-5.7 16.5-39.6 31.7-37.7 7.4 1 8 10.4 9.9 18.8-4.8 4.1-14.8 19.3-4 23.8 12.3-1.6 3.9-23.9 17.9-23.8 9 5.2.3 22.2 2 28.8 10.7-4.5 13.2-17.7 21.7-24.8a31 31 0 0 1 13-6c3.7.9 1.5 7.7 6.8 7 3.8-24.6-28.8-5.4-33.6 5ZM670 58.6c22-2 45.8-18.7 54.5-34.7a22 22 0 0 0-.8-23.9h-6.5c3 2.8 5 5.9 5.3 9 .7 7.5-6 16.7-9.9 20.8A78 78 0 0 1 668 52.6c-28.2 2.3-45.6-25.3-47.5-50.5l-.1-2.1h-5.5c2.7 31.3 20.8 61.6 55.1 58.6Z" />
    <path
      d="M649.2 3.1c.7 4.9 11.2 15.5 19.8 7-2-5.3-13.5-1-13.8-8l.5-2.1h-6.5v3.1Zm1 1858.6c10.2-.5 13.3 7.4 22.8 4-8.7-7.7-21.2-12.3-31.7-8-19.7 8.2-28.7 35.6-26.4 62.3h5.5c-1.2-24.2 8.2-57.3 29.8-58.3Zm12.9 41.6c-5 2-12.9 9-13.9 16.7h6.5c6.3-20.7 46.8-13.5 61.5 0h6.5c-10.6-16.2-40.8-25-60.6-16.7Zm-3.8-635c-2.4-2.7-2.5-6.6-2.2-8.9 1.6-12.7 18.2-18.4 24-26.6-5.4-6.3-10 1.7-14.4 3-6.3 2-16.5.5-22-4.8-8.2-7.8-.8-15.7.6-26.4-15.6 3.3-30.5 10.3-49-4.8-2.6-10.2 12.6-11.8 14.9-17.3-6.5-4.3-18.3-4.1-26.8-12-7-6.3-11.4-16.7-7.5-23.6 3-5 6.6-1.8 8-7.7-28.6-3.6-12.2 42 12.4 45.5a16.7 16.7 0 0 0-7.2 16.8c14.7 16.3 32 14 46 12.4-7.2 13.4 8.8 28.9 23.2 28.8-30 36.8 35 49 47.5 25.6-14.4.7-34.6 14.9-47.5 0Zm-32-488.6c-4.3-3-10-5-13-8-1.6.5-1.8-.7-1.9-1.9 14.2 0 22.8 5.6 25.8 16.8-2.7 1.9-6.8-4-11-6.9Zm9.9 28.7a97.3 97.3 0 0 0-37.7-29.7c1.1-.2.7-2 2-2 16.3 1.7 37.8 11.5 35.7 31.7Zm-44.6-18.8c-.2-1.1.2-1.8 1-2 17.3-.7 30.2 11.4 36.6 24.8-17.8-2.3-27.4-12.8-37.6-22.8Zm-51.5 91.1c-.2-7.5 9.8-14.7 14.9-7.9-.9 6.6-7.7 10.8-14.9 8Zm17.8 9c1.1-4.2 4.3-10.5 9-8-1.8 3.9-4 7.3-9 8Zm12-10c.3-2.7-3.8-.9-4-3-7.8 1.3-10.7 7.2-12 15-6.2.6-8.4-2.8-11.8-5 7.5-2.2 17.4-4.9 16.8-13-.8-11.4-22.3-8.4-21.8 5-19.1-23 13.5-31.5 32.7-43.5 14-8.8 22.8-21.4 29.7-28.8 3.9 1.8 7 4.4 10 7-11.6 19-26.4 42-29.8 74.3-.8 7.3-13.2 18.2-20.8 7.9 3.3-5.7 12.7-5.1 11-15.9Zm33.6-21.8c-2.9 24.3 9.7 46.5-4 63.4-31.2 38.7-110 13.4-103-44.5C499.7 859 512 847 524.3 839c14.2-9 33-8.4 46.5-19.8 7-5.8 10.2-15.4 18.8-21.8 4 1 5.6 4.4 8 7-8.3 8.7-16.6 20.7-29.8 28.7-13 8-42.7 12.9-38.6 37.6.7 4.1 10.7 19 14.9 21.8 2 1.4 6.5 1.3 9.9 3 6.3 3.1 8 7.7 12.9 8 14.8.7 15.6-13 17.8-26.8 4-25.2 19.7-44.5 30.7-61.4 1.7 1.6 3.6 3 7 3-5 15.3-16 22.8-18 39.5Zm32.7-86.1c-4.8-1.5-6.8-5.8-13-6 3.4-4.1 13.2.3 13 6Zm5 8c0-3.8 2.4-6.2 1.9-9-1.8-10.1-12.3-13.7-21.8-11.9-8.8 4.7-17.2 9.9-26.7 13.9 1.3 6.7-6.8 8.5-9 12.9-1 2.3.4 4.7-1 6.9a82.4 82.4 0 0 1-28.7 27.7c-18.8 8.6-37.4 12.1-51.5 26.8-34.8 36.3 2 93.8 40.7 98 26.2 2.8 51.3-6.2 62.3-24.8 10.1-16.9.1-38 2-60.4 1.4-16.2 12.3-24.5 17.9-38.6 4.8-2.3 14-6 15.8-13.9.3-1.3 1-18.1 1-18.8-.2-3-3-6-3-8.9Zm-58.4 987c.8-8.5 0-18.5 4-23.8 8 11.2 18.6 19.7 26.7 30.7-9.6-2.9-19.7-5.4-30.7-7Zm-13.8-53.5c.2-4 16.8-14.8 17.8-19.8-.6 12.3-4.2 21.5-5 33.7-4-4.4-13-8.8-12.8-14Zm7.9 52.5c-5.9.6-8.8-1.8-14.9-1-2.9-12.3-5.4-25-8.9-36.6 3.9-3.5 7-7.7 12-10 2.8 7.6 13 10.3 14.8 18.9 1.7 8.5-4.4 17.2-3 28.7Zm-5 39.6c-2.3-11.9-6.4-22-7.9-34.7 5-.7 7 1.7 11.9 1-1.5 11-1.5 23.6-4 33.7Zm-62.4-52.5c15-4.9 26.5-13.2 38.7-20.8 2 10.9 5.6 20.1 6.9 31.7-16.4-2.4-35-2.5-45.6-10.9Zm32.7-59.4c5.6 7.3 13.7 12 17.9 20.8-4.6 1-5.2 6-10 7-1-10.2-8.3-19.5-7.9-27.8Zm47.6-11c-10.6 6-15 18.2-23.8 25.8-12.5-6.7-18.5-24.9-33.7-25.7-.4 14.7 10.5 26.5 12.9 41.6a60 60 0 0 1-19.8 15.8c-5.5 3-22.9 6-23.8 12-1.1 7.7 15 12 22.8 13.8 11.4 2.6 21.4 2.5 31.7 4 6.9 15.2 6.7 37.5 15.8 50.5 13-6.3 6.4-32 10-47.6 16 .2 30.8 11 43.5 8-9.5-18.9-27-29.8-38.6-46.6-.4-17 12-38.5 3-51.5ZM443.5 250.6c-32.9-5.7-51.8 26.2-50.5 56.5 2.3 2.2 2.4 6 5 9 9.3 11.2 45.3 25.7 59.3 13.8-21-2-51.2-5.1-57.4-22.8-9-25.4 20-54.8 42.6-50.5 16 3 21.9 22 13.8 33.7-4.8 7-19.8 18.2-24.7 5 2.1-5.5 9.8 4 9.9-4-1.9-3.6-8.3-5.1-12.9-3-3.8 2.7-3.9 12-1 15.8 21 9.5 42.5-11 38.7-31.7-1.9-10-13.5-20.1-22.8-21.8Zm-67.2 1366.6c.9 9.3 15.4 14.8 22.8 5.9-4.5-4.5-14.2 1.2-16.8-6 1.4-16.8 42-25 42.6-8.9.6 18-21.2 50.4-39.7 49.6-15.7-.8-31-27.8-32.6-50.5-2.5-36 24.4-62.4 54.4-43.6-1-7.8-8.3-11-13.8-12-32.5-5.7-48 26.7-46.6 55.5 1.3 27 22.2 63.1 46.6 55.5 14.3-4.5 40.8-36 37.6-56.4-3.7-24-56.3-10.1-54.5 10.9Zm-2.3-430.9c1-8 3.3-14.6 5-21.8 8 5.2 18.1 8.3 23.8 15.8-10.4 1.1-19.4 3.7-28.7 6Zm-6.9-36.7c2.4-5.5 6-10 9-14.8 1.9 4.2-2.1 11-1 17.8-2.8 2.3-4.3-3.1-8-3Zm0 38.6c-6.7 2.8-13.4 5.7-20.8 8-5.6-18 11.4-28.4 16.9-41.6 4.3.9 6.8 3.7 9.9 5.9-1 10.3-4.4 18-6 27.7Zm-11.9 37.7c-3.3-7-5.1-15.4-6.9-23.8 4.5-2.1 9.8-3.4 13.9-6 3 7.5-4.4 21.4-7 29.8Zm-14.8-48.6c-3.3-14.1-9.9-25-13.9-38.6 14 .6 22.3 6.8 31.7 11.9-6.1 8.7-10 19.8-17.8 26.7Zm-4 22.8c.5-1.9 2.2-2.5 2-5 4.1-.2 1.9 7-2 5Zm43.6-43.6c.4-12 5.3-24.1 4-34.6-14.6 1-13.8 17.2-22.8 23.7-9.9-5.6-26.7-17.8-40.6-9.9-.6 19 18 34.2 15.8 51.5-1 7.3-10.4 10.4-6.9 19.8 4.4 3 8.9-1.3 12.9-2 4.3 9.7 5.4 27.6 14.8 28.8 8.5-10 9.3-27.7 14.9-40.6 12.5-5 30.2-4.8 41.6-11-6.5-13.2-24.2-15.4-33.7-25.7Zm-21 196c3.3-4.6 8-11.8 4.9-17.8-9.3-17.7-42.7 11.7-47.6 18.8-9-28.7-43-4.2-45.5 14.9-16.6-1-20.7 10.3-27.7 18.8-7.5-11-13.2-26.3-28.8-26.8-36.5-1-42.6 91.3-15.8 111-.3-7.2-4.8-13.6-7-21.8-2-8-4-17.3-4-27.8.3-21.8 7.8-56 26.8-55.4 9.8.3 24 17.6 25.8 29.7 1.1 8-6 19.5 5 21.8 5.8-3.2 4.2-15.8 2-21.8 4.6-10.6 8.2-22 23.7-21.8-.2 7.4-.6 15 7 14.9 8-3.2 1.9-15 0-19.9 3.5-11.6 12.8-25.6 24.7-23.7 18.6 3 1.6 26.5 6 37.6 9.7-1.4 6.8-12.5 9.8-19.8 5.3-12.7 25.6-31.5 39.6-24.8 1.5 11-9 10.1-9.9 18.9 9.6-.5 15.4 7.5 22.8 5.9-.7-6.9-8.1-7-11.9-10.9Zm-60.1-417.7c-5.6 2.4-15.1 10.9-13.9 19.8.6 5 11.1 15.5 19.8 7-2-5.3-13.5-1-13.9-8 5-28 65.6-12 67.4 7 .7 7.4-6.1 16.7-10 20.8a78 78 0 0 1-44.5 22.8c-28.3 2.2-45.6-25.4-47.5-50.6-1.9-24.3 7.4-59.4 29.7-60.4 10.1-.4 13.3 7.4 22.8 4-8.7-7.7-21.3-12.2-31.7-8-43 17.7-34.9 126.5 28.7 120.9 22-2 45.8-18.7 54.5-34.7 16-29.5-33.2-52.5-61.4-40.6Zm-69.2-528.7c1.3-11.5 4.9-20.8 7-31.7 12 7.7 23.6 16 38.5 20.8-10.4 8.4-29.1 8.5-45.5 11Zm-7 1c-6-.7-9 1.6-14.8 1 1.4-11.4-4.8-20.2-3-28.7 1.8-8.6 12-11.3 14.9-18.8 5 2.3 8 6.5 11.9 9.9-3.5 11.7-6 24.4-9 36.6Zm-9.9 40.6c-2.4-10-2.4-22.6-4-33.6 5 .6 7-1.7 12-1-1.5 12.7-5.6 22.8-8 34.6Zm-9.9-78.2c-.7-12.1-4.3-21.4-5-33.7 1 5 17.7 15.9 18 19.8.1 5.1-8.9 9.5-13 13.9ZM171.2 416c8.2-11 18.8-19.5 26.8-30.7 4 5.3 3.2 15.3 4 23.8-11 1.5-21 4-30.8 7Zm71.3-80.2c.5 8.4-6.8 17.6-7.9 27.7-4.7-.9-5.3-5.9-9.9-6.9 4.2-8.7 12.3-13.5 17.8-20.8Zm16.9 46.6c-8.9-4.9-15-9.7-19.8-15.9 2.4-15 13.3-26.9 12.9-41.6-15.2.8-21.2 19-33.7 25.8-8.9-7.7-13.3-19.8-23.8-25.8-9 13 3.4 34.4 3 51.5-11.6 16.8-29 27.7-38.6 46.6 12.7 3 27.5-7.7 43.5-8 3.6 15.6-3 41.3 10 47.6 9-13 8.9-35.3 15.8-50.5 10.3-1.5 20.2-1.4 31.7-4 7.8-1.8 24-6.1 22.8-13.9-1-5.9-18.3-8.8-23.8-11.8Zm-73.2 1400.4c13.2-8.6 29.2-14.3 35.6-29.7 3.5-1.6.6 3.4 3 3-1 15.3-25.9 33-38.6 26.7Zm11.8 8.9c7.6-7.3 19.3-10.4 25.8-18.8 1 11.8-11.2 19.2-25.8 18.8Zm13 5c4-2.6 9.4-3.8 11.8-8 3.5 5.8-7.5 10.1-11.9 8Zm-31.8-22.8c7.9-13 20-21.7 37.7-24.8-7.3 13-19.4 26.1-37.7 24.8Zm-33.6-103c3.6 1.9 9.6 5.8 7.9 9.9-5-1-7.2-4.8-8-10Zm-17.9 9.9c7-3.1 14.2 1.5 14.9 7.9-5.5 6.1-15 .2-14.9-8Zm18.8 7c.5-6.6-7.9-12-16.8-12 2.4-3.5 5-6.8 11.9-6 .9 9 7 17.8 15.8 13 1.5-10.4-5.9-12-10.9-15.9 3.4-8.9 15.5-4.8 18.9 1 2.6 4.5 1 9.2 2 15.8 3.6 24 21.6 49.4 29.7 63.4-1.7 4-6.8 4.5-9 8a250.2 250.2 0 0 0-24.7-23.8c-16-13.1-56.9-20.7-39.6-48.5.3 12.2 21.9 17 22.7 5Zm12 55.4c-14-12.4-33.4-11.8-47.6-20.8-13-8.3-28.1-22.4-27.7-45.6.2-12.6 7.3-27 14.8-35.6 26-30.2 94.7-25.2 96 22.7.4 12-3.7 23.3-3.9 32.7-.3 20.2 13.3 30 18.8 46.6-3 .3-6 .5-6.9 3-8.2-13.5-26.6-35-30.7-59.5-2.2-13.3-1.7-30.5-18.8-28.7-8.9 1-8.3 9.9-19.8 10-17.4 10.8-22.8 35-4 48.4 6.8 5 17.2 6.7 25.8 12 14 8.4 23.5 21.6 29.7 29.6a14 14 0 0 0-7 6c-10.8-6.3-11.4-14.4-18.8-20.8Zm72.2 11.9c-.6-8.2-10.1-11-15.8-15.9-6.8-12.2-13.6-19.5-16.9-32.7-3-12.5 2.2-26.2 2-41.6-.3-34.6-31.6-53.7-69.3-48.5a63.4 63.4 0 0 0-52.5 53.5c-3.9 33.1 18.2 52.3 36.6 61.4 9.8 4.8 21.8 5.5 31.7 10.9 7.1 3.8 22.2 20.6 25.8 26.7 1 1.9 0 5.1 1 7 2.3 4.4 9.6 6.3 9.9 13.8 15.1 3.4 21.5 16.8 36.6 12.9 10.5-2.7 9-13.2 9-21.8-.2-9.3 2.3-21 2-25.7ZM191.1 741.5c-2.3-2.8-2.4-6.6-2.1-9 1.6-12.7 18.2-18.3 24-26.5-5.5-6.3-10 1.7-14.4 3-6.3 2-16.5.5-22.1-4.9-8.1-7.8-.7-15.7.7-26.4-15.6 3.3-30.5 10.4-49-4.7-2.6-10.2 12.5-11.8 14.8-17.3-6.4-4.3-18.2-4.2-26.8-12-7-6.4-11.3-16.7-7.4-23.6 2.9-5 6.6-1.8 8-7.7-28.6-3.6-12.3 42 12.4 45.5a16.7 16.7 0 0 0-7.2 16.8c14.7 16.3 32 14 46 12.3-7.3 13.5 8.8 29 23.2 28.9-30 36.8 35 49 47.5 25.6-14.5.6-34.6 14.9-47.6 0ZM169.6 1113c1-8.7-2.4-12.8-7-16-4.6-.3-8.2.4-11.8 1-3.5-33.8-33.6-14.8-39.6 1-2.8-62-77.5 19.1-28.7 20.8-2.6-6.7-9.3-3.6-11-9.9-2.8-11 15.4-29.9 23.8-28.7 15.7 2.2 7.3 29.5 9 40.6 10.8-5.6 16.5-39.5 31.6-37.6 7.5 1 8 10.4 10 18.8-4.8 4-14.9 19.3-4 23.8 12.2-1.6 3.9-23.9 17.8-23.8 9.1 5.1.4 22.1 2 28.7 10.8-4.5 13.3-17.7 21.8-24.7 3.3-2.8 7.9-4.8 12.9-6 3.8.8 1.5 7.7 6.9 7 3.7-24.7-28.8-5.4-33.7 5Zm-87.7 778.6c6.4.8 11.2-6.6 15.8-10.9 4.8-4.4 12-8.8 13-15.8a60 60 0 0 0-28.8 26.7Zm3-1873.4c3.7 6.3 19.9 10.3 26.7 7a43.1 43.1 0 0 0-26.7-7Zm19.4 1266.1a45.8 45.8 0 0 0-17.8-32.7c-28-19.7-59 6.3-58.4 31.7.2 10.2 6.5 21.8 15.8 23.8 19.5 4.2 36.3-14.1 26.8-29.7-6-2-17-2.4-14.9 7 5 4.4 6.9-5.5 11.9-1-2.1 24-33.4 22.2-33.7-1-.2-13.2 13.8-31.1 28.7-31.8a36 36 0 0 1 35.7 35.7c-1 26-33.3 45-61.4 41.6a63.8 63.8 0 0 1-37-18.5v8.3c11 9 24 14.8 38 16.1 32.2 3.2 66.7-19 66.3-49.5Zm-22-438.5c-7.3 13-19.4 26-37.7 24.8 7.9-13 20-21.7 37.7-24.8Zm7.9 7c-1 15.3-25.9 33-38.6 26.7 13.2-8.6 29.2-14.4 35.6-29.7 3.5-1.6.6 3.3 3 3Zm-26.7 35.6c7.5-7.3 19.2-10.5 25.7-18.8 1 11.8-11.2 19.2-25.7 18.8Zm12.8 5c4-2.6 9.5-3.8 12-8 3.4 5.8-7.6 10-12 8ZM19 777.4c-5-.9-7.2-4.7-8-9.8 3.7 1.9 9.7 5.8 8 9.9Zm18.8 88.2c1 1.9 0 5.1 1 7 2.3 4.4 9.6 6.3 9.9 13.8 15.1 3.4 21.5 16.8 36.6 12.9 10.5-2.7 9-13.2 9-21.8-.2-9.3 2.3-21 2-25.7-.7-8.2-10.2-11-16-15.9-6.7-12.2-13.5-19.5-16.7-32.7-3.1-12.5 2-26.2 2-41.6-.4-33.4-29.6-52.3-65.5-49v7c28-3.6 58.6 9.2 59.5 41 .3 12-3.8 23.3-4 32.7-.3 20.2 13.4 30 18.8 46.6-2.9.3-6 .5-6.9 3-8.2-13.6-26.6-35-30.7-59.5C34.5 770.1 35 753 18 754.7c-8.3.9-8.3 8.9-17.9 9.8v3c1.7-.9 4-1.3 7-1 .9 9 7.1 17.8 15.8 13 1.5-10.4-5.9-12-10.8-15.9 3.3-8.9 15.4-4.8 18.8 1 2.6 4.5 1 9.2 2 15.8 3.6 24 21.6 49.4 29.7 63.4-1.7 4-6.8 4.5-9 8A250.2 250.2 0 0 0 28.9 828c-7-5.9-19.1-10.6-28.8-16.5v4.9c6.2 2.8 13.5 4.7 19.9 8.6 14 8.5 23.5 21.7 29.7 29.7a14 14 0 0 0-7 6c-10.8-6.3-11.4-14.4-18.8-20.8-7-6.2-15.4-9.2-23.8-11.7v6.1c4.1 1.2 8.2 2.6 12 4.6a112 112 0 0 1 25.7 26.7Z" />
    <path
      d="M12 784.4c.3-5.3-5.1-9.8-12-11.3v3.6c4.2 1 7.5 4.4 8 8.7a7 7 0 0 1-8 2v3.5c5.7 1.4 11.5-.3 12-6.5Zm57 1023.1c-3.8 11.3-12.5 23-10.9 36.6 5-3 6.6-10.8 9-16.8 2.3-6.1 6-13.7 4.9-19.8h-3ZM26.6 270.4c3-3.4 2 5.2 4 6-2.2 2.7-2.4-4.8-4-6Zm-10.9 15.9c-2.4-1.9-4.5-4-4-9 1.1-.9 2-1.9 3-2.9 1.7-.3 1.8 1 3 1 .7 5-1.3 7.2-2 10.9Zm47.6 12.9c10.5-15.4 6.7-40.7-6-53.5-13.3-13.6-37-12-48.5-30.7A24 24 0 0 0 0 197.2v13.9c.8.4 1.7.8 1.9 1.9L0 215.2v12.3c6 6.7 6.1 17.8 15.7 27 6 5.8 23.9 7.2 25.8 15 1 4 .1 11.7-8 10.8-.1-7-.4-14-6.9-14.8-7.7 4 1 14 3 17.8-2.4 3-5.7 7.7-10.9 5 2.3-6.2 4.8-14.8-2-17.9-12.7.8-7 15.2-5 19.8-18 3-9-24.1-10.8-39.6-.2-1.7-.5-3.2-.9-4.7v44.7a9 9 0 0 0 4.9 3.6c7.2 2.3 8.9-5.2 19.8-2 7-3.7 7.4-10 16.8-9.9 12.8-17.2-10.8-24.8-22.8-29.7C14 242.1 2.7 233 3 221c.9-.6 1.7-1.2 2 0 17.6 22.2 53.8 17 58.4 49.5a41 41 0 0 1-6 26.8C46.3 312 19 320.2 0 314.3v6.2c21.8 5.3 51.2-3.8 63.3-21.3ZM49.2 63.7c2.3 17.6 10.5 34.4 24.8 36.7-8.4-11.5-16.8-22.9-22.8-36.7h-2Zm-30.7 1434c15.8 3.7 16.6 24.3 24 34.7 7.6-8.2 15-1.5 22.5-6.6-6.7-7-13.5-4-20.3-2.5-4.3-10.4-11.4-30.7-26-32.6-2.6.2-5.3 5.2-7.9 4.8A47 47 0 0 0 0 1475.7v9.6c6.8 10.8 7 22.3 12.6 30.5 7.3-3.5-.9-12.3 6-18ZM25 0H6c5.6 3.3 12.4 2.9 19 0Zm23.2 20.2A88.7 88.7 0 0 1 0 18.6V25a58 58 0 0 0 18.5 4c9.9.3 23.4-.5 29.7-9ZM27.4 1867.9c36.3 2.5 6.2 55.6-17.8 47.5-.7-13 12.9-11.6 15.8-20.8-12-.8-22.8 8.1-21.7 23.8L6 1920h19c15.8-6.8 30.4-27.3 25.2-43.2-7.1-21.8-32-16.1-50.2-5.7v5.7a47 47 0 0 1 27.4-9ZM333 648.6l-11-18.1c-4.4-7.6-8.7-15.2-13.3-22.7-1.8-3-4-6-5.6-9-2.3-4.2-4.8-8.2-7.2-12.3l-6.7-10.6a25 25 0 0 1-2.6-5.6c-1.4-4.8.3-9.4 4.6-12 4-2.6 8-5.1 11.9-7.8 4.4-3 9-6 13.4-9.2 3-2 6-4.2 9-6.1 2.1-1.3 4.3-2.3 6.4-3.4 2.1-1.1 4-2.6 6-4a119 119 0 0 1 6.9-4.7c4.8-3.3 9.6-6.6 14.7-9.5l6.3-3.5c3.5-2 6.8-4.4 10.3-6.5a8.7 8.7 0 0 1 6.8-1.2c11.6 2.6 23.1 5.5 34.7 8.4l6.5 2c1.6.5 2.8 1.5 3.7 2.9 2.4 3.9 5 7.6 7.3 11.7 8 14 16.5 27.7 25 41.4 4.1 6.9 8.4 13.6 12.4 20.5 3 5.3 6.1 10.6 9.4 15.8 5 7.8 9.7 15.7 14.5 23.6 2.7 4.4 3.4 9 1.3 14a13 13 0 0 1-5.4 6.2c-4.7 3-9.5 5.7-14.2 8.6-5.6 3.4-11 7.2-16.7 10.7-4.4 2.6-9 4.8-13.3 7.4l-8 5.3-3.5 2c-4.5 2.5-8.7 5.6-13.2 8.2-2.6 1.5-5.3 2.9-7.9 4.5-3 1.9-5.9 3.9-9 5.6L388 712c-3.5 2-7.2 3.1-11.3 2a12 12 0 0 1-7.2-5c-4-5.4-7.2-11.5-10.8-17.3-3-4.7-5.8-9.4-8.6-14.2-5.5-9.7-11.4-19.1-17.2-28.8Zm-20.7-44.2 14 23.6c8.5 14.2 17.1 28.3 25.5 42.6 6 10.1 12.2 20.2 18.4 30.3 1 1.7 1.9 3.4 3.1 4.8 2.6 3 5.9 4 9.6 2.5 3.7-1.5 7-3.7 10.4-5.6 3.9-2 7.6-4.4 11.4-6.7 3.4-2 6.9-4.3 10.4-6.2 6.8-3.7 13-8.2 19.5-12.3 7-4.4 14.3-8.1 21.4-12.3 7.5-4.5 14.7-9.4 22-14 3.3-2.2 6.8-4 10.2-6 1.6-1 3-2.3 3.9-4a8 8 0 0 0 .5-7.2c-1.3-3-3.1-5.8-4.8-8.7a392 392 0 0 0-7.7-13c-2.9-4.5-5.4-9.3-8.6-13.6-1.2-1.8-2-3.8-3.1-5.7a2922 2922 0 0 0-18.8-30.6L436 539.6l-8-13.1c-1-1.7-1.6-3.5-3-5-.5-.7-1-.8-1.6-.3l-6.4 4.4c-4.5 3.2-9 6.4-13.9 9a10 10 0 0 1-9.5.5 13.5 13.5 0 0 1-5.7-5.5l-10.4-17.7c-.8-1.3-1-1.4-2.4-.6-3.7 2.3-7.4 4.6-11.2 6.7a147 147 0 0 0-10 6c-6 4-11.8 8.2-18 11.8-2.2 1.3-4.6 2.5-6.7 4-5.2 3.3-10.2 7-15.4 10.4L300 559c-1.8 1.2-3.7 2.3-5.4 3.7-3 2.4-3.7 5.4-1.7 8.6 6.6 10.8 13 21.8 19.4 33Zm95.6-90.3-2.1-.5-21.7-5.3c-.6-.1-1.2-.3-1.8-.1-.1.4 0 .6.2.8 2.1 3.6 4 7.3 6.3 10.8l1.4 2.5c1 2.2 2.3 4.2 4 6a5 5 0 0 0 5.8 1.4c1.1-.4 2.2-1 3.2-1.6l14.4-9.3c.4-.3 1-.4 1-1-.2-.6-.8-.7-1.3-.9-3-1.1-6.1-1.8-9.4-2.8Z" />
    <path
      d="M385 604.2 361.7 619c-3.7 2.3-7.2 5-11 7.3-1 .6-2 1.2-3.2 1.5-1.3.3-2.3-.2-3-1.4-.6-1-.5-2 .5-3l.8-.7c3-1.7 5.6-3.6 8.4-5.4l7-4.9c1.8-1.1 3.7-2.2 5.6-3.1 2.5-1.1 4.6-2.8 6.8-4.3 2-1.3 4-2.8 6-4 3-2 6-3.8 9.2-5.5l6.1-3.4c2.8-1.4 5.4-3.3 8-5.2 1.3-1 2.8-1.9 4.2-2.8 4.6-3.2 9.6-5.6 14.6-8.1 2.5-1.3 4.7-3.1 7.1-4.5a10 10 0 0 1 2.1-1c1.5-.4 2.6.1 3.3 1.5.5 1.2 0 2.4-1.1 3.2-2.2 1.5-4.2 3-6.5 4.3-3.7 2.1-7.4 4-11.2 6a67.7 67.7 0 0 0-8 5.1c-4 3-8.1 5.7-12.6 7.9a59.9 59.9 0 0 0-10 5.8Zm45.1 25.3c7.8-5.5 16-10 24-15l2.8-1.4c1-.5 2.1-.1 2.8.8.9 1.3 1 2.3 0 3.3-1.1 1.1-2.5 2-3.7 2.8-6 4-12.3 7.5-18.4 11.4-3.2 2-6.4 4.1-9.7 6-4 2.3-8.2 4.2-12 6.6-2.3 1.3-4.4 3-6.7 4.3-4.6 2.7-9.6 5-14 8-5.7 3.9-11.8 7.2-17.7 10.9-1.1.7-2.2 1.7-3.5 2.3-2 1-4 .2-4.4-1.8-.2-1.2.5-2 1.3-2.6 1.5-1.3 3.2-2.2 4.8-3.2l7.8-4.5c2.7-1.4 5.1-3.3 7.7-5 2.8-1.9 5.7-3.6 8.6-5.2 3.2-1.7 6.4-3.4 9.3-5.6 2.2-1.7 4.5-3 7-4.3a158 158 0 0 0 14-7.8Zm12.7-37.2 1.2-.5c1.2-.4 2.2-.1 2.9.9.7 1 .7 2.1 0 3.1l-1.8 1.5c-4.4 2.9-9.2 5-13.6 8-3.4 2.4-7 4.6-10.6 6.7-4.6 2.5-9.3 4.8-13.7 7.8-4 2.7-8 5.4-12.2 7.8-3.1 2-6.5 3.3-9.6 5.3l-13.9 9.4c-3.3 2.1-6.6 4.3-10.2 6-.5.3-1.2.4-1.8.4-1.1 0-2-.6-2.3-1.6-.4-1-.3-2 .5-2.8l2-1.4c5.1-2.5 9.8-5.7 14.5-9 3.4-2.3 6.7-4.8 10.4-6.8 2.8-1.4 5.7-2.8 8.5-4.5 2.6-1.6 5-3.5 7.6-5.2 2.1-1.5 4.3-2.7 6.4-4 2.5-1.5 5-3 7.6-4.1 3-1.4 5.9-3.3 8.7-5.2 2.2-1.5 4.4-3 6.7-4.3 3.6-2 7.2-4.3 10.8-6.5a35 35 0 0 1 1.9-1Zm-103.5 5.1c5.8-3.8 11.1-8 17-11 4.4-2.4 8.4-5.2 12.6-7.8 3.7-2.3 7.6-4.2 11.2-6.5 2.7-1.7 5.3-3.5 8.1-5 2-1.1 4-2 5.8-3.3 7-5 14.5-9.3 21.9-13.8l2-1c1.2-.4 2.4 0 3 .8.8 1.1.7 2.1-.2 3.2-.4.5-1 .8-1.4 1l-12.4 7.6-9.2 6.2a61.5 61.5 0 0 1-5.8 3.5 57.3 57.3 0 0 0-7.5 4.5 58.3 58.3 0 0 1-6 3.5c-3.5 2-7 4-10.3 6.4-2.3 1.5-4.6 3-7 4.2a86 86 0 0 0-10.6 6.3 156.3 156.3 0 0 1-15.6 9.9c-1.3.4-2.5 0-3.3-1.2-.6-1-.4-2.1.6-3 1.4-1.3 3.2-2 4.7-3l2.4-1.5Zm41.2-49.1c-2.8 1.8-5.4 3.8-8.3 5.3-3 1.5-6 3.3-8.6 5.3a89.3 89.3 0 0 1-11.5 7.6c-3 1.6-6 3.3-8.8 5.2-6.2 4-12.7 7.7-19 11.7-.8.5-1.7.9-2.6 1-1.4.4-2.6-.1-3.2-1.3-.6-1-.4-2.2.7-3 1.7-1.4 3.5-2.5 5.2-3.7l4.6-2.8c5.7-3.3 11.1-7.1 16.9-10.4l6.5-3.5c3.6-2 6.7-4.6 10.1-6.8 2.6-1.7 5.4-3 8-4.5 1.8-1 3.5-2 5.1-3.1 1.3-1 2.6-1.8 4-2.3 1.4-.5 2.6-.2 3.2.9.7 1 .5 2.1-.5 3.2-.5.5-1.1.8-1.8 1.2ZM412.2 668c5.5-3.1 10.8-6.6 16.2-9.8 2.5-1.4 4.7-3.3 7.3-4.7l2-1c1.3-.3 2.4 0 3.1 1 .9 1.2.8 2-.2 3.3-1 1.2-2.4 2-3.6 2.8-12.6 8.2-25.7 15.7-38.5 23.6l-10 6c-.8.5-1.6.9-2.5 1.2-1.3.5-2.7 0-3.4-1.2-.7-1.2-.5-2.2.7-3.3l1.3-1c5.4-3.4 11-6.2 16.4-9.7 3.7-2.3 7.3-5 11.2-7.1Zm863.6 567c3.6-6 7.1-12.2 10.8-18.2 4.5-7.5 9.2-14.9 13.5-22.5 1.8-3 3.4-6.3 5.3-9.3 2.6-4 4.9-8 7.3-12.1l6.2-11c1-1.7 2.1-3.5 3.6-5 3.5-3.5 8.4-4.1 12.8-1.7a395 395 0 0 0 12.4 6.8l14.5 7.4c3.3 1.6 6.6 3.2 9.8 5 2 1.2 4 2.6 6 4a47 47 0 0 0 6.3 3.3l7.5 3.8c5.1 2.7 10.4 5.3 15.3 8.4l6.1 3.8c3.5 2.2 7.1 4 10.7 6a9 9 0 0 1 4.3 5.4c3.3 11.5 6.1 23 9.1 34.5.6 2.2 1 4.4 1.4 6.7.3 1.7 0 3.2-.8 4.6-2.3 4-4.3 8-6.7 12-8.6 13.7-16.5 27.7-24.6 41.7-4 7-7.8 14-12 20.7a650 650 0 0 0-9.3 15.8c-4.5 8-9.2 16-13.9 24a14.6 14.6 0 0 1-11.7 8c-2.9.2-5.5-.5-8-2l-14.3-8.2c-5.7-3.4-11.7-6.3-17.4-9.7-4.3-2.5-8.5-5.5-12.8-8l-8.5-4.6c-1.2-.6-2.3-1.4-3.4-2.1-4.4-2.8-9.1-4.9-13.5-7.6-2.6-1.7-5.1-3.3-7.8-4.8-3-1.8-6.2-3.4-9.3-5.2-6-3.8-12-7.6-18.2-11.2a14 14 0 0 1-7.1-9c-.7-3-.5-6 .8-8.7 3-6.1 6.8-11.8 10.2-17.7a477 477 0 0 1 8.3-14.3c5.9-9.5 11.4-19.2 17.1-29Zm29-39.2c-4.7 7.9-9.2 15.8-14 23.7-8.5 14.1-16.7 28.5-25.2 42.7l-18 30.6c-1 1.6-2 3.2-2.6 5-1.5 3.8-.7 7.1 2.4 9.7 3 2.4 6.5 4.3 9.8 6.4 3.7 2.4 7.6 4.5 11.3 6.8 3.5 2 7.1 4 10.5 6.2 6.5 4.2 13.5 7.5 20.2 11.3 7.1 4 13.9 8.7 21 12.8 7.5 4.5 15.2 8.5 22.8 12.7 3.5 1.9 6.7 4.1 10.1 6 1.7 1 3.5 1.6 5.4 1.6a8 8 0 0 0 6.5-3c2-2.6 3.7-5.5 5.4-8.3 2.7-4.3 5.2-8.7 7.6-13 2.7-4.7 5.7-9.2 8-14 1-2 2.4-3.7 3.5-5.6l18-31c4.3-7.7 8.8-15.3 13.3-23l7.7-13.2c1-1.7 2.3-3.2 3-5 .3-.8.2-1.3-.5-1.6l-7-3.5c-5-2.4-9.9-5-14.6-7.9a10 10 0 0 1-4.9-8.1c-.1-2.8.8-5.4 2.1-7.7l10.6-17.6c.8-1.3.7-1.6-.7-2.4-3.7-2.2-7.5-4.3-11.1-6.6a128 128 0 0 0-10-5.9c-6.5-3.3-13-6.5-19.1-10.2-2.2-1.3-4.4-2.8-6.6-4-5.5-3-11.1-5.7-16.6-8.5-4.8-2.6-9.5-5.3-14.3-7.8-2-1-3.9-2.2-6-3-3.4-1.5-6.4-.6-8.3 2.6-6.3 11-12.9 21.8-19.7 32.8Zm125 41-.6-2.2-5.7-21.6c-.2-.6-.3-1.2-.7-1.7-.4.1-.5.4-.6.6-2.1 3.6-4.5 7-6.5 10.7l-1.5 2.4c-1.5 2-2.6 4.1-3.4 6.4a5 5 0 0 0 1.5 5.8c1 .8 2 1.4 3 2l15 8.2c.5.2 1 .8 1.4.3.5-.3.2-1 .1-1.4-.4-3.2-1.3-6.3-2-9.6Z" />
    <path
      d="M1339.7 1259.5c-8.1-4.3-16-8.8-24-13.3-3.8-2.1-7.8-3.9-11.6-6.1-1-.6-2-1.3-2.8-2.1-1-1-1-2.2-.3-3.4.7-1 1.6-1.3 2.9-1l1 .5c2.8 1.7 5.8 3.2 8.8 4.8l7.6 3.8c1.9 1 3.7 2.1 5.4 3.4 2.2 1.6 4.6 2.6 7 3.9 2.1 1.2 4.4 2.1 6.5 3.3 3 1.8 6.2 3.5 9.1 5.5l5.9 3.8a52 52 0 0 0 8.4 4.5l4.5 2.3c5 2.5 9.5 5.8 14 9 2.4 1.6 5 2.6 7.5 4l1.8 1.5c1 1.1 1.2 2.3.2 3.6-.7 1-2 1.2-3.3.5-2.3-1.2-4.7-2.2-6.9-3.6-3.6-2.2-7-4.6-10.5-7a67.4 67.4 0 0 0-8.5-4.6 83.5 83.5 0 0 1-12.9-7.3c-3-2.2-6.3-4.3-9.8-6Zm-.7 51.8c8.6 4.3 16.6 9.3 24.8 14 .9.5 1.6 1 2.4 1.7 1 .7 1.2 1.8.7 2.8-.7 1.5-1.6 2-3 1.6-1.4-.4-2.8-1.2-4.1-2-6.4-3.3-12.5-7.1-18.8-10.6a196 196 0 0 1-10-5.6c-3.9-2.4-7.5-5.2-11.5-7.5-2.3-1.4-4.6-2.4-7-3.8-4.5-2.7-8.8-6-13.7-8.5-6.1-3.1-12-7-18-10.3-1.2-.6-2.5-1.1-3.7-2-1.9-1.2-2.1-3.4-.5-4.7 1-.7 2-.5 3-.1 1.7.7 3.4 1.7 5 2.7 2.6 1.5 5.2 3 7.7 4.7 2.5 1.7 5.4 2.9 8 4.3 3 1.6 6 3.3 8.7 5.2 3 2 6 4 9.4 5.4 2.5 1.1 4.8 2.6 7 4.1 4.5 3 8.9 6 13.6 8.6Zm38.8-6.7 1 .9c1 .8 1.2 1.9.6 3-.6 1.2-1.5 1.6-2.8 1.4a7 7 0 0 1-2.1-.8c-4.7-2.5-8.9-5.7-13.5-8-3.8-2-7.4-4-11-6.3-4.4-2.8-8.7-5.8-13.3-8.2-4.4-2.2-8.6-4.5-12.8-7-3.1-1.9-6-4.2-9.2-5.9-5-2.6-10-5-14.8-7.7-3.5-2-7-3.8-10.2-6.1a4 4 0 0 1-1.2-1.4c-.6-1-.5-2 .3-2.8.6-.8 1.5-1.2 2.6-.9l2.2 1c4.7 3.3 9.8 6 14.8 8.5 3.7 1.9 7.5 3.6 11 5.9 2.6 1.8 5.2 3.7 8 5.3 2.7 1.5 5.5 2.8 8.3 4.2 2.2 1.1 4.4 2.5 6.5 3.7 2.5 1.5 5 3 7.3 4.7 2.7 2 5.7 3.6 8.7 5.2 2.3 1.2 4.7 2.4 7 3.8 3.5 2.2 7.2 4.3 10.8 6.4l1.8 1.1Zm-53.8-88.4c6 3.3 12.1 6 17.8 9.7 4 2.7 8.5 4.9 12.7 7.3 3.8 2.1 7.3 4.6 11 6.8 2.8 1.6 5.7 3 8.4 4.7 1.9 1.1 3.6 2.5 5.6 3.5 7.7 3.9 15 8.3 22.5 12.6l2 1.4c.8.8 1.2 2 .7 3-.6 1.2-1.6 1.6-3 1.3l-1.6-.7-12.4-7.3-10-5.2c-2-1-3.9-2.1-5.8-3.4a64 64 0 0 0-7.5-4.4c-2-1-4-2.2-6-3.5a119 119 0 0 0-10.5-6.1 66.7 66.7 0 0 1-7-4.2 86.5 86.5 0 0 0-10.7-6.2 157.9 157.9 0 0 1-16-9c-1.1-1-1.3-2.2-.6-3.4.6-1 1.7-1.5 3-1 1.8.6 3.2 1.9 4.8 2.7l2.5 1.4Zm62.7 12.8c-3-1.7-6-3-8.6-4.9a58.7 58.7 0 0 0-8.8-5 88 88 0 0 1-12.2-6.4c-2.8-2-5.7-3.7-8.7-5.3-6.6-3.5-13-7.4-19.4-11a9 9 0 0 1-2.2-1.9c-1-1-1-2.3-.3-3.4.7-1 1.7-1.4 3-.9 2 .9 3.8 2 5.7 3l4.6 2.6c5.7 3.4 11.6 6.3 17.2 9.9l6.3 4c3.4 2.2 7.2 3.7 10.7 5.7 2.7 1.4 5.2 3.2 7.8 4.8 1.7 1.1 3.4 2.2 5.2 3 1.4.7 2.8 1.4 4 2.4 1 1 1.3 2.2.7 3.3-.6 1-1.7 1.4-3 1-.8-.1-1.3-.6-2-1Zm-90.1 85c5.5 3.4 11 6.3 16.4 9.5 2.5 1.5 5.2 2.6 7.6 4.2l1.9 1.3c.9 1 1.1 2.1.6 3.2-.7 1.3-1.4 1.7-3 1.4-1.5-.3-2.8-1.2-4.2-1.9-13.2-7.1-26-15-39-22.5l-10.2-6c-.8-.4-1.5-1-2.2-1.5-1-1-1.3-2.4-.6-3.6.7-1.2 1.7-1.5 3.2-1l1.5.7c5.6 3.1 10.8 6.7 16.4 9.8 3.8 2.1 7.8 4 11.6 6.4Zm123.1 282.9a30 30 0 0 1-10.2 7.5c-7.7 3.2-16.5.1-20.1-7.3-2.7-5.3-1.8-10.5 1.4-15.3 2.6-3.8 5.8-7 9-10.3 8.7-9 18-17.4 26.7-26.5 1.9-2 3.6-3.9 5.6-5.6 2-1.7 3.9-3.1 6.6-2.5.5.1.9-.1 1.2-.4l6.2-5c1-.7.9-1.2.2-2a63.8 63.8 0 0 1-14-48 64.5 64.5 0 0 1 19.4-37.6 61.4 61.4 0 0 1 58-15.4 61.5 61.5 0 0 1 48.5 49.9 62.4 62.4 0 0 1-18.5 57.6c-9.6 9-21 14.7-34 16.8-6.7 1.1-13.3.9-19.9-.3a73.8 73.8 0 0 1-21-7.8c-.9-.5-1.5-.4-2.1.4l-6.1 7.6c-.3.3-.4.5-.4 1 .5 1.9-.3 3.4-1.5 4.8-4.7 5.6-9.8 10.9-14.7 16.2l-20.3 22.2Zm19.2-119.3c-.6 3.6-1.2 7.2-1.2 10.9a56 56 0 0 0 13.1 37.3 60.7 60.7 0 0 0 52.8 21.5 56.6 56.6 0 0 0 46-35.8 57.3 57.3 0 0 0-13.9-63.2 58.8 58.8 0 0 0-35.3-15.6 53.6 53.6 0 0 0-36.2 8.5 59.6 59.6 0 0 0-18 18.3 61.3 61.3 0 0 0-7.3 18.1Zm-21 113.1 24-26 7.5-8.2c1.4-1.5 1.3-2.3-.1-3.6l-11-10.4c-.8-.6-1.4-.7-2 0-1.4 1.3-2.8 2.5-4.1 3.9-7.6 8.1-15.6 15.8-23.5 23.6a143 143 0 0 0-12.7 13.9 11.7 11.7 0 0 0-2.6 5.7c-.8 5.8 4 10.4 9.5 10.5 4 .1 7-1.7 10-4.1 1.7-1.6 3.2-3.4 5-5.3Zm29.7-46.6 4.5 4.1c.7.6 1.2.6 1.8-.2l2-2.6c1-1.4 2.2-2.6 3-4-.3-.6-.7-.8-1-1.1-2-1.5-3.8-2.9-5.6-4.5-1.8-1.7-1.8-1.7-3.8-.1l-5.4 4.4 4.5 4ZM705 1395.4c2.8-3.2 5.9-6 9.8-7.8 7.6-3.3 16.5-.5 20.4 6.8 2.8 5.2 2 10.4-1 15.3-2.5 3.9-5.7 7.2-8.7 10.5-8.5 9.3-17.7 18-26 27.3-1.9 2-3.6 4-5.5 5.7-1.9 1.7-3.8 3.2-6.5 2.7-.5-.1-.9.1-1.2.4-2 1.7-4 3.5-6.1 5.1-.9.8-.8 1.3-.1 2a61.3 61.3 0 0 1 12.7 60 64.5 64.5 0 0 1-16 25.9 61.4 61.4 0 0 1-57.3 16.9 64.7 64.7 0 0 1-23.8-9.7 61.5 61.5 0 0 1-26.1-38.9 62.4 62.4 0 0 1 17-58.1 63.6 63.6 0 0 1 33.5-17.8 56.9 56.9 0 0 1 19.8-.1 74.6 74.6 0 0 1 21.2 7.1c1 .5 1.6.5 2.2-.4l5.9-7.7c.2-.3.4-.6.3-1-.5-1.9.2-3.5 1.4-4.9 4.6-5.7 9.5-11.1 14.2-16.6l19.8-22.7Zm-16.2 119.7a56 56 0 0 0-13.2-47.8 60.8 60.8 0 0 0-53.3-20 56.7 56.7 0 0 0-45 37 57.4 57.4 0 0 0 51.3 77.4c13 1.2 25-2 36-9.4 7.2-5 13-11.3 17.5-18.9a61.7 61.7 0 0 0 6.7-18.3Zm18-113.6-23.2 26.7-7.4 8.4c-1.3 1.5-1.2 2.3.3 3.6l11.3 10c.7.7 1.3.7 2 0l4-4c7.3-8.3 15.1-16.2 22.8-24.3a146 146 0 0 0 12.3-14.1c1.3-1.7 2.3-3.6 2.5-5.8.6-5.8-4.4-10.3-9.8-10.3-4 0-7 2-9.9 4.5-1.7 1.5-3.2 3.4-4.9 5.3Zm-28.4 47.5-4.6-4c-.7-.7-1.2-.6-1.8.2l-2 2.7c-1 1.4-2 2.6-2.8 4 .2.6.7.8 1 1.1 2 1.4 3.9 2.8 5.7 4.3 1.8 1.7 1.9 1.7 3.8 0l5.3-4.5-4.6-3.8Zm-64.1-963.3L588 474c-2.8-1.3-3.8-4.1-2.4-6.5a5 5 0 0 1 2.3-1.8c9.6-4.8 19.3-9.3 29.1-13.6a2540 2540 0 0 0 77-33.6c12.7-5.7 25.6-11.2 38.5-16.6l28.8-12c1.2-.5 2.2-1.2 3.4-1.5a5 5 0 0 1 2.7.2c2.7 1 4.4 4.9 3.4 7.5a245 245 0 0 0-10 31.5c-3 11-5.9 21.8-8.7 32.8a1063.3 1063.3 0 0 1-24.5 83.2c-.3.8-.6 1.6-1.1 2.3-1.8 2.2-4.2 2.6-6.8 1l-9.1-6.3-24-16.2c-1.4-1-2.2-1-3.5.3l-23 22-7.6 7.5c-1.3 1.3-2.8 2.2-4.7 1.5-1.9-.6-2.9-2-3.2-3.9-.8-3.7-1.1-7.5-1.7-11.2L641 529l-1.8-13-1.9-13.3-.7-5.4a2.6 2.6 0 0 0-1.7-2.4l-20.7-9.2Zm139-56.7 6.7-23.7c-.8 0-1.2.4-1.6.7l-3.8 3.5a337 337 0 0 0-15 15.5l-18.4 19.7c-8.4 9.4-17 18.6-25.3 28a1234 1234 0 0 0-25.6 29.7c-1.2 1.4-1.2 1.9.4 3l10.3 7 22.3 15 16.6 11.2c1.6 1 1.9 1 2.5-.8l6.8-20.2a572.7 572.7 0 0 0 14.3-50.2l9.9-38.4Zm-56.5-4.3c-8.9 4-17.8 8-26.8 11.8l-34.4 14.8c-13.1 5.7-26.2 11.4-39.1 17.3-.5.3-1.2.4-1.5 1 .4.6 1 .7 1.4 1l17.3 7.6 22.8 10.2c1.2.5 2.2.3 3.1-.5l12.4-10.5a2226.7 2226.7 0 0 1 53.6-44.1c10.6-8.3 21.5-16.4 32.3-24.4 1.3-1 2.7-1.8 3.7-3-15 6-29.8 12.3-44.8 18.8Zm-6.1 28.6-19.1 15.8-27.7 23.5a3 3 0 0 0-1 2.6L645 510l2 13.2 1.3 10c.2 1.1.2 2.3.8 3.5l.4-1 10-27.6c1-2.8 1.8-5.7 4-7.8l1.4-1.5a1499.1 1499.1 0 0 1 46.3-52.6c7-7.8 14-15.7 21.4-23.3l4-4.4-.1-.2a777.3 777.3 0 0 0-45.9 35Zm-20.8 74.8 4.4-4 3.6-3.4c1-1 1-1.7-.3-2.5l-9.6-6.5c-2.1-1.5-2.4-1.4-3.3 1l-10.2 28c-.2.5-.8 1.2-.1 1.6.5.3 1-.4 1.3-.8L670 528Z" />
    <path
      d="M1505.5 46.7 1532 35c2.8-1.3 3.8-4.2 2.3-6.5a5 5 0 0 0-2.2-1.8c-9.6-4.8-19.3-9.3-29.1-13.6l-38-16.4c-13-5.5-26-11.3-39-17.1-12.7-5.8-25.6-11.3-38.5-16.7l-28.9-12c-1-.5-2.1-1.2-3.3-1.5-1-.3-1.9-.1-2.8.2-2.6 1-4.4 4.9-3.3 7.5 4.3 10.2 7.2 20.8 10 31.5l8.7 32.8c4.2 16.3 8.5 32.6 13.3 48.8 3.5 11.5 7.3 23 11.2 34.4.3.8.5 1.6 1.1 2.3 1.8 2.1 4.2 2.5 6.8 1l9.1-6.3 23.9-16.3c1.5-1 2.3-1 3.6.4l23 22 7.6 7.5c1.3 1.3 2.8 2.1 4.7 1.5a5 5 0 0 0 3.2-3.9c.8-3.7 1.1-7.5 1.7-11.2l1.6-11.5 1.9-13 1.8-13.3c.3-1.8.6-3.6.7-5.4.2-1.2.7-2 1.8-2.4 6.8-3 13.7-6 20.6-9.2Zm-139-56.7c-2.1-8-4.3-15.8-6.7-23.7.9 0 1.3.4 1.7.7l3.8 3.5c5.2 5 10.2 10.1 15 15.5 6 6.6 12.3 13 18.3 19.7l25.4 28c8.6 9.8 17.2 19.6 25.6 29.6 1.2 1.5 1.1 2-.4 3l-10.4 7-22.3 15.1-16.6 11.2c-1.5 1-1.8 1-2.4-.8l-6.8-20.2a569.2 569.2 0 0 1-14.3-50.2l-9.9-38.4Zm56.5-4.3c9 4 17.9 8 26.8 11.8l34.5 14.8a1500 1500 0 0 1 39.1 17.3c.5.3 1.1.4 1.4 1-.3.6-.9.7-1.3 1l-17.4 7.6-22.7 10.2c-1.2.5-2.2.3-3.2-.5l-12.4-10.5a2219 2219 0 0 0-53.5-44.1c-10.7-8.4-21.5-16.4-32.3-24.5-1.3-1-2.7-1.7-3.7-3 15 6 29.8 12.4 44.7 18.9Zm6.2 28.6c6.4 5.3 12.8 10.5 19 15.8l27.7 23.5c.8.7 1.2 1.5 1 2.6l-2 14.8-2 13.2-1.3 10c-.2 1.1-.2 2.3-.8 3.5l-.4-1-10-27.6c-1-2.8-1.8-5.7-4-7.8l-1.5-1.6a1479.6 1479.6 0 0 0-46.2-52.5c-7.1-7.8-14-15.7-21.4-23.3l-4-4.4.1-.2c15.8 11 30.8 22.8 45.8 35Zm20.7 74.8-4.3-4-3.6-3.5c-1-1-1-1.6.3-2.4l9.6-6.5c2.1-1.5 2.4-1.4 3.3 1a9282 9282 0 0 1 10.2 28c.2.4.8 1.2.1 1.6-.6.3-1-.5-1.4-.8L1450 89Z" />
    <path
      d="m1505.5 1966.7 26.5-11.8c2.8-1.3 3.8-4.2 2.3-6.6a5.1 5.1 0 0 0-2.2-1.7c-9.6-4.8-19.3-9.3-29.1-13.6l-38-16.4c-13-5.5-26-11.3-39-17.1-12.7-5.8-25.6-11.3-38.5-16.7l-28.9-12c-1-.5-2.1-1.2-3.3-1.5-1-.3-1.9-.1-2.8.2-2.6 1-4.4 4.9-3.3 7.5a245 245 0 0 1 10 31.5l8.7 32.8c4.2 16.3 8.5 32.6 13.3 48.8 3.5 11.5 7.3 23 11.2 34.4.3.8.5 1.6 1.1 2.3 1.8 2.1 4.2 2.5 6.8 1l9.1-6.3 23.9-16.3c1.5-1 2.3-1 3.6.3l23 22.2 7.6 7.4c1.3 1.3 2.8 2.1 4.7 1.5a5 5 0 0 0 3.2-3.9c.8-3.7 1.1-7.5 1.7-11.2l1.6-11.5 1.9-13 1.8-13.3c.3-1.8.6-3.6.7-5.4.2-1.2.7-2 1.8-2.4 6.8-3 13.7-6 20.6-9.2Zm-139-56.7c-2.1-8-4.3-15.8-6.7-23.7.9 0 1.3.4 1.7.7l3.8 3.5c5.2 5 10.2 10.2 15 15.5 6 6.6 12.3 13 18.3 19.7l25.4 28c8.6 9.8 17.2 19.6 25.6 29.6 1.2 1.5 1.1 2-.4 3l-10.4 7-22.3 15.1-16.6 11.2c-1.5 1-1.8 1-2.4-.8l-6.8-20.2a568.6 568.6 0 0 1-14.3-50.2l-9.9-38.4Zm56.5-4.3c9 4 17.9 8 26.8 11.8l34.5 14.8a1500 1500 0 0 1 39.1 17.3c.5.3 1.1.4 1.4 1-.3.6-.9.7-1.3 1l-17.4 7.6a7538 7538 0 0 0-22.7 10.2c-1.2.5-2.2.3-3.2-.5l-12.4-10.5a2265.3 2265.3 0 0 0-53.5-44.1c-10.7-8.3-21.5-16.4-32.3-24.5-1.3-1-2.7-1.7-3.7-3 15 6 29.8 12.4 44.7 18.9Zm6.2 28.6c6.4 5.3 12.8 10.5 19 15.8l27.7 23.5c.8.7 1.2 1.5 1 2.6l-2 14.8-2 13.2-1.3 10c-.2 1.1-.2 2.3-.8 3.5l-.4-1-10-27.6c-1-2.8-1.8-5.7-4-7.8l-1.5-1.5a1438 1438 0 0 0-46.2-52.6c-7.1-7.8-14-15.7-21.4-23.3l-4-4.4.1-.2c15.8 11 30.8 22.8 45.8 35Zm20.7 74.8a1586.9 1586.9 0 0 1-7.9-7.4c-1-1-1-1.7.3-2.5l9.6-6.5c2.1-1.5 2.4-1.4 3.3 1l10.2 28c.2.4.8 1.2.1 1.5-.6.4-1-.4-1.4-.7L1450 2009Z" />
    <path
      d="M262.2 2075c-2.9 3.2-6 6-10 7.7-7.6 3.4-16.4.5-20.3-6.8-2.7-5.3-2-10.6 1.2-15.4 2.5-3.9 5.7-7.1 8.7-10.4 8.6-9.3 17.8-17.8 26.3-27 1.8-2 3.5-4 5.5-5.8 1.8-1.7 3.8-3.2 6.5-2.6.5 0 .9-.2 1.2-.5l6.1-5c1-.7.9-1.2.2-2a61.3 61.3 0 0 1-12.2-60.1 64.5 64.5 0 0 1 16-25.7 61.4 61.4 0 0 1 57.5-16.5 61.5 61.5 0 0 1 49.5 49 62.5 62.5 0 0 1-17.4 57.9 63.6 63.6 0 0 1-33.6 17.5 56.9 56.9 0 0 1-19.9 0 73.6 73.6 0 0 1-21.1-7.3c-1-.5-1.5-.4-2.2.4l-6 7.7c-.2.3-.3.6-.2 1 .4 1.9-.3 3.4-1.5 4.9-4.6 5.6-9.5 11-14.4 16.5l-19.9 22.5Zm17-119.6a56 56 0 0 0 12.8 48 60.7 60.7 0 0 0 53.2 20.4 56.7 56.7 0 0 0 45.3-36.7 57.3 57.3 0 0 0-15.1-62.9 58.8 58.8 0 0 0-35.6-15 53.5 53.5 0 0 0-36 9.3 59.7 59.7 0 0 0-17.8 18.7 61.6 61.6 0 0 0-6.8 18.2ZM260.3 2069l23.5-26.5 7.4-8.4c1.3-1.5 1.2-2.3-.2-3.5l-11.3-10.2c-.7-.6-1.3-.6-2 0l-4 4c-7.4 8.2-15.2 16.1-23 24.1-4.3 4.5-8.6 9-12.4 14a11.8 11.8 0 0 0-2.5 5.8c-.6 5.8 4.3 10.3 9.7 10.4 4 0 7-1.8 9.9-4.4 1.8-1.5 3.2-3.4 5-5.3Zm28.8-47.2 4.6 4c.7.6 1.2.6 1.8-.2.6-1 1.3-1.8 2-2.7l2.9-4c-.3-.6-.7-.8-1.1-1.1-2-1.4-3.8-2.8-5.6-4.4-1.9-1.7-1.9-1.7-3.8 0l-5.4 4.5 4.6 3.9Z" />
    <path
      d="M262.2 155c-2.9 3.2-6 6-10 7.7-7.6 3.3-16.4.5-20.3-6.8-2.7-5.3-2-10.6 1.2-15.4 2.5-3.9 5.7-7.1 8.7-10.4 8.6-9.3 17.8-17.8 26.3-27 1.8-2 3.5-4 5.5-5.8 1.8-1.7 3.8-3.2 6.5-2.6.5 0 .9-.2 1.2-.5l6.1-5c1-.7.9-1.2.2-2A61.3 61.3 0 0 1 275.4 27a64.5 64.5 0 0 1 16-25.7 61.4 61.4 0 0 1 57.5-16.5 64.7 64.7 0 0 1 23.7 9.9 61.5 61.5 0 0 1 25.8 39 62.5 62.5 0 0 1-17.4 58 63.6 63.6 0 0 1-33.6 17.5 56.8 56.8 0 0 1-19.9 0 74 74 0 0 1-21.1-7.3c-1-.5-1.5-.4-2.2.4l-6 7.7c-.2.3-.3.6-.2 1 .4 1.9-.3 3.4-1.5 4.9-4.6 5.6-9.5 11-14.4 16.5L262.3 155Zm17-119.6a56 56 0 0 0 12.8 48 60.8 60.8 0 0 0 53.2 20.4A56.6 56.6 0 0 0 390.5 67a57.3 57.3 0 0 0-15.1-62.9 58.8 58.8 0 0 0-35.6-15 53.6 53.6 0 0 0-36 9.3A59.8 59.8 0 0 0 286 17.2a61.5 61.5 0 0 0-6.8 18.2ZM260.3 149l23.5-26.5 7.4-8.4c1.3-1.5 1.2-2.3-.2-3.5l-11.3-10.2c-.7-.6-1.3-.6-2 0l-4 4c-7.4 8.2-15.2 16.1-23 24.1-4.3 4.5-8.6 9-12.4 14a11.8 11.8 0 0 0-2.5 5.8c-.6 5.8 4.3 10.3 9.7 10.4 4 0 7-1.9 9.9-4.4 1.8-1.6 3.2-3.4 5-5.3Zm28.8-47.2 4.6 4c.7.6 1.2.6 1.8-.2.6-1 1.3-1.8 2-2.7l2.9-4c-.3-.6-.7-.8-1.1-1.1-2-1.4-3.8-2.8-5.6-4.4-1.9-1.7-1.9-1.7-3.8 0l-5.4 4.5 4.6 3.9Z" />
  </g>
</svg>