<svg viewBox="0 0 595 553" fill="currentColor" xmlns="http://www.w3.org/2000/svg">
  <path
    d="M297.9 511.6c3.2-.2 4.8 1.3 4.9 5.4.1 7-.1 14-.1 21v10.1c-.2 3-1.5 4-5 4-2.6 0-3.7-1.4-3.7-4v-30.8c0-4 1-5.5 3.9-5.7Zm-61.3-10.9c1.5-5.9 3.9-6.9 9.4-3.8.8 1.7.6 3.1.3 4.6l-8.6 33.7-1.2 3.9c-.7 2-2 3.3-4.2 3a4.8 4.8 0 0 1-4.4-4c-.3-1.3-.1-2.6.2-4l8.5-33.4Zm118.7-3.4c2.8-.9 5 1 6.6 5.8l6 21c.6 2.4.5 4.6-2 5.6-3 1-5.3 0-6.3-2.9-2.5-7.3-5-14.7-7.3-22-1-3.4.4-6.7 3-7.5Zm56-19.9c2.4-.4 3.4 1 4.4 2.7l9 16.8c1.7 3 3.2 5.7 4.9 8.4 1.4 2.3 1.4 4.3-.7 6a4.9 4.9 0 0 1-6.8-.8 55 55 0 0 1-4.3-7c-3.3-6.3-6.9-12.5-10.4-18.6-2.4-4-.8-6.9 3.9-7.5ZM296.8 458c3-1.2 5.8.3 5.8 3.5v33c0 2.7-2.1 5-4.3 5-2.3 0-4.2-2.2-4.3-5V483l-.1-19.5c0-2.4.4-4.3 3-5.3Zm-102.4 7.2c1-2 3.2-2.5 5.5-1.6 2.2 1 2.8 2.7 2.5 4.9-.1 1-.7 2.2-1.1 3.2l-6 13.1c-1 2.2-1.6 4.4-3.3 6-1.6 1.5-3.5 2.5-5.6 1.3a4.1 4.1 0 0 1-2-5.5c3.2-7.2 6.5-14.3 10-21.4Zm-48.1-9.2c1.5-1.9 3.2-2.8 5.4-2.2 3.7 1 4.4 4.4 1.7 7.7l-16.2 20c-2.2 2.8-4.1 5.6-6.2 8.4-2.1 2.8-4 3.3-6.5 1.7-2.4-1.6-3-4.6-1-7.2l11.6-14.5 11.2-14Zm194.4-5.2a5 5 0 0 1 6.4 2.4c1.1 2.4 1.8 5 2.6 7.4l5.1 16.1c.5 1.5.9 2.6 1.1 3.9.6 2.4-1 5-3.3 5.6-2.5.7-4.6-.4-5.3-2.7-3.1-9.3-6.4-18.6-8.9-28.1-.5-2.1.3-3.8 2.3-4.6Zm-89-10c1.2-4.5 2.3-5 7-3.3 2.3 1.3 2.6 3.1 2 5.3l-10.3 39.4c-.7 2.8-2.3 4-5.1 4-2.9 0-4.4-1.9-4-4.7 1-6.9 3.2-13.4 4.9-20.1 1.7-7 3.6-13.8 5.5-20.6Zm195.3 13c3.2-1.5 5.8-.8 7.8 1.6 5.3 6 10.5 12 15.7 18.2 2.4 2.7 2.4 5 .3 6.8-2.3 2-4.7 1.6-7.2-1l-16-18c-2-2.2-3.3-4.6-.6-7.6Zm-67.8-23.2c1.2-1.6 3-1.8 5-1.5 1.6.4 2.6 1.6 3.4 3l17.2 28.6c1.2 1.9 2 4 .6 6.2-1.3 1.8-3.2 2-5 1.6-1.9-.4-2.7-2-3.6-3.4l-11.6-19c-2.1-3.5-4.2-6.8-6-10.2-1-1.7-1.2-3.7 0-5.3Zm-165.4-6.4c1-2.3 3-3.6 5.5-3.1 2.3.4 4 2 3.8 4.9-3.7 8.4-7.4 16.6-11.3 24.8-1.5 3.2-4.2 4.5-6.1 3.5-2.8-1.5-3.8-4.6-2.4-7.9l10.5-22.2Zm-35-10.5c2-1.2 4-1.5 5.8.3 1.7 1.7 1.3 3.8.1 5.5-5.4 7.4-10.8 14.9-16.4 22.2-2 2.7-5.6 3.5-7.1 2.2-2-1.7-2.1-5.3 0-8.1 2.8-4 6-7.8 9.1-11.8l5.4-7.3a9.5 9.5 0 0 1 3-3Zm119.5-14c2.5 0 4.3 2 4.4 5.1v33.8c0 4.7-1 5.5-6.2 4.9-2-.5-2.5-1.7-2.5-3.4l-.2-35.3c0-3 2-5 4.5-5Zm113.5 9.9c1.8-1.1 3.7-1.2 5.2.4l6.1 7.1a6897 6897 0 0 1 15.6 18.7c2.3 2.8 1.8 5.1-1.3 6.9-2 1.1-3.5.6-5-1l-12-13.7-8-9.2c-1-1.2-2-2.5-2.5-4-.7-2.2 0-4 1.9-5.2Zm-300.3 10.2c2.2-1.6 4.3-2 6.6-.6 3 2 3.2 4.6.4 6.8A2170 2170 0 0 1 99 441.6c-2.6 2-5.1 1.8-7-.6-1.9-2.2-1.5-4.5 1.3-6.8l18.2-14.4Zm328.9-30.4c.4-2.9 2.4-4.1 5.2-3.3 3.6 1 6.2 3.8 9.2 6.2l48 38.1c1.9 1.5 3.2 3.2 1.4 5.6-1.8 2.7-4.7 3.4-7.3 1.5l-12-9.3c-14-11.3-28.2-22.7-42.5-34-1.7-1.3-2.3-2.8-2-4.8Zm-112.6 8.1c2.6-.8 4.8.3 5.7 3.4 2.8 9.2 5.4 18.5 8 27.8.4 1 .3 2 .2 3-.3 2.8-1.8 4.7-4.3 5.2-2.8.6-3.9-1.6-4.5-3.9l-4.2-15c-1.3-5-2.6-9.6-4-14.2-.7-3 .5-5.5 3.1-6.3Zm-66 3.8c1-2.6 3-3.9 5.6-3.4 2.8.5 3.7 3 3.4 5.3-1 7.6-3.3 15-5.4 22.2-.6 2-2.4 2.5-4.5 2.7-4.4-1.3-5.1-2.7-4.1-6.7l4.4-18 .6-2Zm98.2-10.4c2-.2 3.4.4 4.3 1.9 4 7.2 8.6 14 12.1 21.6 1.6 3.3-1 6.6-4.8 6.2a4 4 0 0 1-3.3-2l-11-19.5c-2-4-1.1-6.6 2.7-8.2Zm-128.5-.6c2.1-1.4 4-1.5 5.7.1 1.5 1.5 2 3.5 1.1 5.5-2.5 5.5-5 11-7.9 16.4-1 2.1-3.3 2.6-5.5 1.7-2-.8-3-2.5-2.7-4.8 0-.6.2-1.2.4-1.8a66.8 66.8 0 0 1 9-17.1Zm-81-3.5c1.9 0 3.4.5 4.2 2.2.8 1.8.6 3.8-.9 5-6.8 5.2-12.7 11.6-19.2 17.2a4.9 4.9 0 0 1-7-.6c-1.6-2-1.2-4.3 1.3-6.6l13.8-12.8c2.4-2.1 4.3-4.6 7.8-4.4Zm54.1-9a4.5 4.5 0 0 1 5.5-.9c2.2 1 2.7 2.8 2.1 5.3-4 7.2-8.9 13.5-13.9 19.7-1.7 2-5.4 2.3-7.4.7-2-1.6-2-3.6 0-6.4l11.9-16.2c.5-.8 1.1-1.5 1.8-2.2ZM384 380c2.1-3.2 3.8-3.4 6.6-.8 4.6 4.3 9 8.7 12.9 13.7 2.4 3.1 2.4 5.8.1 7.6-1.8 1.4-5.1.7-7.3-1.6l-13.1-14.2c-.4-1.9-.2-3.4.8-4.8Zm-283.2-12.7c3.2-1.9 5.5-1.4 7 1.2 1.4 2.5.7 5.2-2.2 7l-26.2 15.7c-3.7 2.3-7.4 4.8-11.2 7a7.7 7.7 0 0 1-5.3 1.5c-4.6-2.4-5-6-.8-8.8 5.9-4 12-7.5 18-11.2 6.8-4.2 13.7-8.3 20.7-12.4ZM512 383.2c.8-2.5 3-3 5.3-2.6 3.3.5 5.8 2.5 8.5 4l7.6 4.4c2.2 1.2 4 2.7 3 5.5-1.1 2.7-3 4-6.3 3-5.7-2.6-10.8-5.7-16-8.7-2.3-1.2-3-3.2-2.2-5.6Z" />
  <path fill-rule="evenodd" clip-rule="evenodd"
    d="M298.4 204a70.6 70.6 0 1 1 0 141.3 70.6 70.6 0 0 1 0-141.2Zm-19.7 25.3a23.5 23.5 0 1 0 0 47.1 23.5 23.5 0 0 0 0-47Z" />
  <path fill-rule="evenodd" clip-rule="evenodd"
    d="M257.9 168.2c17-4 34.5-5.2 51.9-4 34 2.5 64.8 14.8 93.3 33.2 21.6 13.8 40 31.3 57.8 49.5 7.9 8.2 15.4 16.6 22.8 25.3 4 4.9 4 5.2 0 10.3A609 609 0 0 1 415 346a214.2 214.2 0 0 1-88.3 39.6c-15.1 3-30.5 2.9-45.8 1.5-29.2-2.5-55.4-13.5-80.5-27.9-24.5-14-44.9-33.1-64.8-52.8-8.5-8.3-16.8-16.7-25.2-25.1-4-4-4.2-5.2-.4-9.2 24.6-26 49.6-51.7 79.2-72.4 21-14.8 43.6-25.8 68.8-31.6Zm103.8 33.2a154.6 154.6 0 0 0-85-12.2 170.5 170.5 0 0 0-63.2 22.9 298 298 0 0 0-52.2 40.5c-7 6.7-13.4 13.9-20.2 20.8-2 2-2 3.8.1 5.8 2.4 2.2 4.6 4.5 6.9 6.9 19 19.8 39.4 38 63.5 52.6 18.8 11 38.4 19.8 60 23.8a143 143 0 0 0 46.3.8c20-2.8 38.4-10 56.2-19.4 31-16.2 56.5-39.1 80.6-64 1.7-1.9 1.5-3.2 0-5.1a318.5 318.5 0 0 0-34.8-35.2 223.2 223.2 0 0 0-58.2-38.2Z" />
  <path
    d="M184 359.7c1.7-.1 3.1.4 4 1.9.9 1.4.4 2.8-.4 4.1-1 1.6-2.4 2.6-3.8 3.7-5 4-10 7.9-15.2 11.7-2.4 1.8-5.1 1.5-6.5-.2-1.7-2-1.4-4.6.7-6.8l1-.8 13.5-10.5c2.2-1.4 4.1-3 6.7-3.1Zm226.2 2.1c1.4-2.2 4.1-2.9 6.6-1.1 5.7 4 11 8.4 15.9 13.2 1.3 1.3 1.5 3 .9 4.7-.7 1.7-2.2 2.3-4 2.3-4.2.2-6.4-2.8-9.2-5.2l-8.7-7.6c-2.1-1.7-3-3.8-1.5-6.3Zm66.9.4c1.2-2.6 3.3-2.3 5.3-1.3 2.8 1.2 5.4 2.8 8.3 4.3 3.1 1.6 6 3 8.9 4.7 2.8 1.6 3.5 3.7 2.2 6-1.5 2.5-3.6 3-6.5 1.6l-16.5-8.3c-2.7-1.4-3.2-3.5-1.7-7Zm-324.8-24.4c2.3-1.3 3.1.5 4 1.7 1.9 2.4 1.7 5.1-.4 6.7-2.3 1.6-4.9 3-7.3 4.4l-3.2 1.8c-7.3 4.4-14.8 8-21.7 12.5-2.7 1.8-5.7.9-7.3-2-1.5-2.5-.9-4.2 2.3-6l33.6-19Zm283.5 1.2c1.7-1.7 3.8-2 5.8-.9 3.3 1.8 6.5 3.9 9.8 5.8l12.5 7.2c3.3 2 4.3 4.6 3 7-1.4 2-4 2.3-7.4.7l-1.3-.6c-7-3.6-13.5-7.3-20-11.3-1.2-.7-2.5-1.6-3-3-.9-1.7-.8-3.5.6-5Zm77.2-14.4c.7-2.3 2.8-3.4 5.6-2.5 6 1.8 12 3.8 18.2 5.8l11 3.5c3.3 1.1 4.5 3.2 3.7 5.5-1 2.7-3.3 4-6.3 3l-29.1-9c-3-.9-4-3.2-3-6.3ZM68.8 323c2.4-.9 4.7-1 6.7 1 2.1 2.2 1.8 5.4-1 6.5-7.4 2.9-14.9 5.5-22.4 8-2.2.7-4.3 0-5.2-2.4-.9-2.5.7-6.1 3.2-7.2 1.6-.7 3.4-1 5.3-1.7l13.4-4.3Zm44.3-14c1.8-.6 3.6-.8 5 .7 1.4 1.4 2.1 3 .9 5.3-.9 1.4-2 2.2-3.3 2.7-7.2 2.6-14.3 5.2-21.7 7.2-3 .8-5.5-.5-6-3.3-.6-2.8 1-4.2 3.6-4.9 7.4-2 14.3-5.1 21.5-7.7Zm354.6 4.3c.5-2.4 2.8-3.7 6-3.5.6 0 1.2.3 1.8.4l2.9 1 15.4 4.2c3.4 1 5 3 4.4 6.1-.5 2.4-2.5 3.7-6 3.2-2.3-.4-4.6-1.2-6.9-1.9-4.6-1.3-9.3-2.5-13.8-4-2.4-.9-4.3-2.6-3.8-5.5Zm121.6-42.9c3.3-.2 5.3 1.3 5.4 3.9.1 2.9-2.1 5-5.5 5h-77.6c-2.5 0-5 0-7.6.5-3.7.7-6-.9-6.2-3.9-.1-3.2 2-5.2 5.7-5.2h59.6c8.7 0 17.5.3 26.2-.3Zm-517.1-.3h18.6c4.3.1 6 2.7 4.6 6.5-.9 2.3-2.7 2.8-5 2.8a6139.3 6139.3 0 0 0-85.7 0c-2.2.1-4.1-.3-4.6-2.8-.4-2.5 0-4.8 2.9-6 1.4-.5 2.8-.5 4.3-.5h64.9Zm410.1-40.9c2.4-.5 4.7.3 5.7 2.9.7 2.1-.8 4.8-3.3 5.7-2.3.8-4.6 1.3-7.2 2l-5.4 1.5c-2.7.6-5.8-1-6.3-3.4-.6-2.8 1.2-4.4 3.5-5.1a158 158 0 0 1 13-3.6Zm-390.6-4.1c1.8-.5 3.3.5 5.2.8l22 5.6c1.6.4 3 1 4.3 2 1.4 1.3 2 2.8 1.2 4.5-.9 1.8-2.3 3.2-4.5 2.7-9.3-1.8-18.5-4.1-27.6-7-2.2-.6-3.6-2.2-3.3-4.7.2-1.8 1-3.3 2.7-3.9Zm437.2-6.9c2.2-.5 4.2-1 5 2 .9 3.2-.1 5.7-2.7 6.8l-1.8.5-24.6 6c-.6 0-1 .2-1.6.3-3.5.6-6-.6-6.6-3.1-.6-2.7 1.2-5 4.8-6l27.5-6.5ZM45.4 217c1-1.8 2.7-2.6 5-2l24.1 5.4c4.6 1.3 5.8 2.7 5 5.6-.9 3.3-3.3 4.5-7.4 3.6l-22.6-5a6 6 0 0 1-3.5-2 4.6 4.6 0 0 1-.6-5.5ZM484 179.7c3.7-1.6 5.6-1.2 6.9 1.1 1.3 2.5.3 5.2-3 7-12.1 6.3-24.2 12.7-36.4 18.8-3.9 2-7.3 4.9-11.7 6-2.3.5-4.3.8-5.4-1.7-1-2.2-.1-5.3 2.3-6.6 3.5-2 7.2-3.7 11.1-5.7a20650.6 20650.6 0 0 1 36.2-19Zm-351.3 14.5c1.3-2.2 3.8-2.6 7-1l15.8 8.8c1.2.6 2.2 1 3 1.6 1.8 1.2 3.5 2.5 2.1 5-1.6 3-3.5 3.8-6.2 2.4a729 729 0 0 1-19.2-10c-3-1.6-3.9-4.4-2.5-6.8Zm297-24.4c2.3-.2 4.4-.3 5.2 2.1.7 2.4.2 4.4-1.8 6.2-5.7 5-11.8 9.4-17.8 14-1.9 1.4-3.8 1-5.3-.6-1.9-2-1.6-5.8.6-7.7 2.5-2.2 5.2-4.2 8-6.1 3.6-2.6 6.8-5.9 11-8Zm-338.3 4.5c1.3-2.5 3.7-3.2 7.1-1.8l4 1.8 18 9.6c3.4 1.9 4.3 3.6 3 6.2-1.4 2.8-3.9 3.6-7.2 2l-21.9-11.2c-3.4-1.8-4.3-4.1-3-6.6Zm76.6-5.7c3.7 1 6 3.8 8.7 5.7 3.2 2.3 6.3 5 9.4 7.4 2.5 2 3 4.2 1.5 6.5-1.4 2.2-3.6 2.9-6.3 1-5.7-3.8-11.4-7.8-16.5-12.4-1.4-1.3-2.3-3-1.7-5 .7-2.2 2.4-3.2 4.8-3.2ZM533.4 157c3-1.5 6-.5 6.9 1.6.8 2.4-.6 5.2-3.6 6.6a2550 2550 0 0 1-28.3 13c-4.3 2-6.7.6-7.3-4.2.7-2 2-3.2 3.6-4 9.4-4.9 19.1-8.8 28.7-13Zm-134.9-9.2c2.7-3.6 6.9-3.7 8.7-.7.6 1.1 1.2 2.3.4 3.6a142 142 0 0 1-18.8 24.6c-2.5 1-4.7.8-6.2-1.2-1.6-2-.6-4 .6-5.8 5-6.9 10-13.8 15.3-20.5Zm-210.3.4c2-1.5 4.2-1.1 6 .5 3 2.7 5.5 5.9 8.2 9 2.9 3.4 5.7 6.5 8.3 9.8 2.3 2.8 2.4 5.1.4 7-2.2 2-4.6 1.8-7.3-.9a151.3 151.3 0 0 1-16.5-19.7c-.9-2-1-4.2 1-5.7ZM54.5 158.9c0-4.7 2.7-6.8 6.7-5 6.2 2.8 12.3 5.8 18.4 8.8 2.4 1.1 3.6 3.1 2.5 5.7-1 2.5-3.4 4-5.8 3-7.1-3.1-14.3-6.1-20.6-10.8-.5-.3-.7-1-1.2-1.7Zm412.2-20.3c2.5-1.5 5.3-1.3 6.5.6 1.5 2.3 1 4.8-.9 6.5-4 3.7-8.3 7-12.5 10.5-3.4 2.7-6.8 5.3-9.8 8.4-2.6 2.6-5 2.8-7.1.7-2-2-1.8-5.6.6-7.6l14.4-12 6.5-5.4 2.3-1.7Zm-348-7.6c2-1.5 4-1.3 5.9 0 2.8 2.1 5.4 4.5 8.2 6.9l2.2 2 20.2 17c2.2 2 2.8 5.4 1.2 7.4-1.6 2-4.4 2.1-7 0l-29.7-25.4c-1-.8-2-1.7-2.2-3-.3-1.8-.6-3.6 1.2-5Zm247.6 10.4c1.7-3 4-3.9 6.5-2.7 2.4 1.1 3.3 3.8 1.8 7-2.6 5.4-5.3 10.7-8.6 15.7-1.4 2.1-3.2 4.1-5.9 2.8-2.5-1.3-3.7-3.7-2.5-6.9l8.7-16Zm-145-9.7c1.9 0 3 .9 4 2.6 1.4 3 3 6 4.7 9l6.6 12.2a8.6 8.6 0 0 1 1.1 5.1c-.2 1.8-1 3-2.8 3.3-2 .2-4 1-5.3-1.4-4.1-7.7-8.4-15.2-12.4-23-2.4-4.7-.6-7.8 4-7.8Zm34.2-37.6c2.7-.3 4.2 1.2 4.8 3.6l3.2 15.4 6.6 35c.7 3.8-3.1 7.3-6.8 6.2-1.2-.3-1.8-1.2-2-2.4l-5.3-27.7-4.7-23c-.2-.7-.2-1.4-.2-2.2.2-2.8 1.7-4.5 4.4-4.9Zm82 34.3c.8-2.2 4.1-3 6.5-2 2.6 1.3 2.5 3.6 2 5.8a88.7 88.7 0 0 1-7 18c-.7 1.2-1.2 2.1-2 2.8a4.6 4.6 0 0 1-5.5 1c-2-1-2.2-2.8-1.6-4.6l7.6-21Zm-41.8-23.8c2.6-1.9 5.9-1 6.9 2.1.4 1.3.6 2.7.6 4v36.6c0 1.3-.2 2.5-.6 3.7a4 4 0 0 1-3.8 2.8c-2 0-3.5-.7-4.3-2.5a14 14 0 0 1-1-5.9v-34c-.2-2.8 0-5.1 2.2-6.8Zm-135.6 9.5c2.3-1.9 5-1.4 7.4 1.4l10.7 13.4c1.4 1.9 2.8 3.5 3.9 5.3 1.2 1.9 2.2 4 0 5.8a5.2 5.2 0 0 1-7.2-.4c-2.6-2.7-4.9-5.7-7.3-8.6l-7.5-9.3c-2.2-2.9-2.2-5.6 0-7.6Zm279-17.1c1.6-1.7 3.2-4.4 6.2-2 2.4 2 2.4 4.5 0 7.8l-.4.7a585.7 585.7 0 0 1-24 30.7c-1 1.2-2 2.3-3.3 3.2-2.8 2.2-5.7 1-6.2-2.5-.3-2 .4-3.8 1.5-5.3 8.6-11 16.9-22.2 26.2-32.6Zm56.1 19.7c2.7-2 5-1.4 7.1 1.9.6 2.6-.2 4.3-2.1 5.7l-14.4 11.2c-2.4 1.9-5.3 1.7-6.8-.1-1.5-1.9-1-5 1.1-6.8l15.1-11.9ZM389.3 102c2-2.7 4.6-3.5 6.7-2.2 2 1.3 2.8 4.3 1.3 7-2.4 4.5-5 8.8-7.6 13.1l-2 3.5-1.9 3.5c-1.8 3.3-4.3 4.3-6.9 2.9-2.5-1.4-3.1-4.3-1.5-7.5l5.9-10.4a482.7 482.7 0 0 1 6-10Zm-304 4c1.7-2.3 3.7-2.4 6.9 0 4.8 3.6 9.6 7.3 14.3 11.2 2.9 2.3 3.2 4.8 1.3 7-2 2.4-4.4 2.5-7.5.2l-2-1.4-11.7-9.8c-2.3-1.9-2.8-5-1.3-7.2Zm105.1-21.4c2.5-2.4 4.8-1.9 6.8.2.8 1 1.6 2 2.2 3 4.6 8.2 9 16.4 13.5 24.7 1.2 2.2 2.5 4.6 1.5 7.4-1 3-3.8 3.8-6.2 1.8a12 12 0 0 1-3-3.6l-14.7-26.4c-1.2-2.3-1.8-4.5 0-7Zm167.4-10c1-2.6 2.7-4.2 5.8-3.9 2.5.4 4 2 3.6 4.6a15 15 0 0 1-.8 3.3l-12.6 33.9c-1.6 4.2-4.9 5.2-8.5 2.5-1.2-2-1-3.9-.4-5.7l13-34.7Zm-226.5 6c2.2-2 4.4-1.3 6 .6 5.3 5.8 10.6 11.6 15.3 18 1.2 1.5 1.6 3.3.5 5.2-1.7 3-3 3.2-5.8 1.4-2.5-1.5-4.1-3.8-6-6.1L131 87.5c-1.6-2-1.5-5.4.3-7Zm166.9-30.1c2.8 0 4.9 2 5 5.8v22.4c-.2 4.1.7 8.4-1 12.7-1.8 2-3.7 2.2-5.9 1.3-2.3-1-2.6-3.1-2.5-5 .4-8 0-16 0-24 0-2.4-.3-4.8-.2-7.2 0-3.9 1.6-5.9 4.6-6Zm110.5 18.2c1.2-2 2.7-4.2 5.7-3.4 2.8.8 4.3 3.5 3.1 6.2a105 105 0 0 1-10.6 18c-2 2.9-4.5 2.3-7.3-1.3-.5-2.2 0-4 1-5.7l8-13.8Zm61.4-10c2.2-1.1 4.1-.7 5.7 1 1.7 1.7 1.8 3.4.2 5.3l-17 21c-1.7 2.2-3.8 2-5.8.6-2.3-1.6-2.7-3.8-1.2-6 1-1.6 2.3-3 3.6-4.8l11.8-14.6c.8-1 1.5-2 2.7-2.5Zm-224.4-8.3c3-.6 5.2.9 6 4.1 1.3 6 2.4 12 3.6 18.1l.7 3.4.5 3c.4 3-1.2 5.4-3.8 6-2.8.5-4.5-.7-5.3-4-1.2-5.7-2.2-11.4-3.2-17l-1.4-8c-.4-2.5-.3-5 3-5.6Zm-81.1-14.7c2.2-1 4.4-.7 5.7 1.6 1.9 3 3.7 6.2 5.6 9.5l9.5 16.9c1.2 2 1.7 4-.2 6-2.8 2.8-5.4 2.7-7.4-.7-5-8.4-9.8-16.8-14.6-25.3-.6-.9-.9-2-1.1-2.9-.7-2.4.4-4.2 2.5-5.1Zm213.8-16.9c1.3-3.4 3.6-4.4 6.7-3.2 2.6 1 3.4 3.2 2.1 6.5l-11.9 31.2c-.9 2.4-2.4 3.7-5 3.2s-3.7-2.4-3.7-5c0-1.5.4-2.9 1-4.3 1-3.1 2.3-6.3 3.5-9.6l7.3-18.8Zm-82-9.4c2.1-1 4-.7 5.8 1.4 1.7 8.2 1 16.3.8 24.4 0 3-2.5 5-5.1 4.7-3-.4-4-2.4-4-5.2.1-6.9-.7-13.8 0-20.7.3-2 .3-3.8 2.5-4.6ZM235.6.2c2.8-.8 5.4.8 6.2 4.3 1.5 6.8 2.7 13.6 4 20.3l.8 4.3.6 4.3c.3 2.6-.8 4.4-3.3 4.8-2.6.5-4.7-.5-5.4-3.2l-3.7-17-2.3-11c-.7-3.4.6-6 3.1-6.7Z" />
</svg>