<svg width="1307" height="252" viewBox="0 0 1307 252" fill="none" xmlns="http://www.w3.org/2000/svg">
<path d="M181.785 46.0342C267.328 46.0344 322.257 122.613 324.645 126C322.255 129.389 267.326 205.966 181.785 205.966L180.784 205.962C98.4851 205.387 45.3993 134.068 40.0156 126.527L39.6445 126C42.0032 122.611 96.2438 46.0342 181.785 46.0342ZM441.188 72.0996C451.855 72.0996 461.455 74.5667 469.988 79.5C478.611 84.4084 485.781 91.3633 491.5 100.363L494.389 75.0996H528.988L522.389 132.1L528.988 188.9H494.389L491.466 163.575C491.44 163.617 491.415 163.659 491.389 163.7C485.789 172.634 478.655 179.567 469.988 184.5C461.455 189.433 451.855 191.9 441.188 191.9C430.122 191.9 420.321 189.433 411.788 184.5C403.255 179.433 396.588 172.433 391.788 163.5C387.121 154.433 384.788 143.966 384.788 132.1C384.788 120.1 387.122 109.633 391.788 100.7C396.588 91.6336 403.255 84.6335 411.788 79.7002C420.321 74.6335 430.122 72.0996 441.188 72.0996ZM716.465 72.0996C728.465 72.0996 739.331 74.2334 749.064 78.5C758.798 82.6333 766.732 88.4337 772.865 95.9004C779.132 103.234 782.931 111.834 784.265 121.7H750.865C749.132 113.967 745.132 108.034 738.865 103.9C732.732 99.6337 725.265 97.5 716.465 97.5C709.398 97.5 703.199 98.9003 697.865 101.7C692.665 104.367 688.665 108.3 685.865 113.5C683.065 118.567 681.665 124.766 681.665 132.1C681.665 139.3 683.065 145.5 685.865 150.7C688.665 155.767 692.665 159.7 697.865 162.5C703.198 165.167 709.398 166.5 716.465 166.5C725.398 166.5 732.931 164.3 739.064 159.9C745.331 155.5 749.265 149.7 750.865 142.5H784.265C782.931 152.233 779.132 160.833 772.865 168.3C766.732 175.766 758.798 181.567 749.064 185.7C739.331 189.833 728.465 191.9 716.465 191.9C702.865 191.9 690.865 189.433 680.465 184.5C670.198 179.433 662.131 172.366 656.265 163.3C650.531 154.233 647.665 143.833 647.665 132.1C647.665 120.233 650.532 109.834 656.265 100.9C662.131 91.8338 670.198 84.7669 680.465 79.7002C690.865 74.6335 702.865 72.0996 716.465 72.0996ZM853.298 72.0996C863.964 72.0996 873.564 74.5667 882.098 79.5C890.72 84.4084 897.89 91.3633 903.609 100.363L906.498 75.0996H941.098L934.498 132.1L941.098 188.9H906.498L903.575 163.575C903.549 163.617 903.524 163.659 903.498 163.7C897.898 172.634 890.764 179.567 882.098 184.5C873.564 189.433 863.964 191.9 853.298 191.9C842.231 191.9 832.431 189.433 823.897 184.5C815.364 179.433 808.697 172.433 803.897 163.5C799.231 154.433 796.897 143.966 796.897 132.1C796.898 120.1 799.231 109.633 803.897 100.7C808.697 91.6336 815.364 84.6335 823.897 79.7002C832.431 74.6335 842.231 72.0996 853.298 72.0996ZM1167.56 72.0996C1178.22 72.0996 1187.82 74.5667 1196.36 79.5C1204.98 84.4084 1212.15 91.3633 1217.87 100.363L1220.76 75.0996H1255.36L1248.76 132.1L1255.36 188.9H1220.76L1217.83 163.575C1217.81 163.617 1217.78 163.659 1217.76 163.7C1212.16 172.634 1205.02 179.567 1196.36 184.5C1187.82 189.433 1178.22 191.9 1167.56 191.9C1156.49 191.9 1146.69 189.433 1138.16 184.5C1129.62 179.433 1122.96 172.433 1118.16 163.5C1113.49 154.433 1111.16 143.966 1111.16 132.1C1111.16 120.1 1113.49 109.633 1118.16 100.7C1122.96 91.6336 1129.62 84.6335 1138.16 79.7002C1146.69 74.6335 1156.49 72.0996 1167.56 72.0996ZM626.921 72.0996C629.454 72.0996 631.988 72.3002 634.521 72.7002C637.188 72.9669 639.654 73.3671 641.921 73.9004V102.7C638.454 101.9 634.988 101.3 631.521 100.9C628.055 100.5 624.787 100.3 621.721 100.3C615.054 100.3 609.054 101.7 603.721 104.5C598.388 107.3 594.188 111.633 591.121 117.5C588.054 123.367 586.521 130.767 586.521 139.7V188.9H553.121V112.5L545.921 75.0996H579.721L584.8 105.723C586.836 99.6768 589.476 94.3358 592.721 89.7002C596.587 84.2337 601.321 79.967 606.921 76.9004C612.521 73.7004 619.188 72.0996 626.921 72.0996ZM1042.03 72.0996C1052.83 72.0996 1062.03 74.3002 1069.63 78.7002C1077.23 82.9668 1083.03 89.0999 1087.03 97.0996C1091.03 105.1 1093.03 114.634 1093.03 125.7V188.9H1059.63V130.7C1059.63 120.434 1057.16 112.7 1052.23 107.5C1047.3 102.167 1040.1 99.5001 1030.63 99.5C1024.23 99.5 1018.56 100.967 1013.63 103.9C1008.83 106.7 1005.1 110.634 1002.43 115.7C999.897 120.767 998.631 126.834 998.631 133.9V188.9H965.23V113.5L958.03 75.0996H991.431L995.64 100.473C996.148 99.5264 996.678 98.602 997.23 97.7002C1002.3 89.4335 1008.7 83.1002 1016.43 78.7002C1024.16 74.3002 1032.7 72.0997 1042.03 72.0996ZM181.785 71.6992C146.89 71.6992 117.451 87.3318 95.5176 104.815C86.1707 112.266 78.5322 119.785 72.8164 126C78.5321 132.215 86.1708 139.733 95.5176 147.184C117.451 164.667 146.889 180.301 181.785 180.301C216.702 180.301 246.332 164.65 268.471 147.128C277.854 139.702 285.542 132.207 291.314 125.999C285.542 119.791 277.853 112.297 268.471 104.871C246.332 87.3492 216.702 71.6993 181.785 71.6992ZM182.145 78.9482C208.13 78.9485 229.195 100.014 229.195 126C229.195 151.986 208.13 173.051 182.145 173.052C156.159 173.052 135.093 151.986 135.093 126C135.093 100.014 156.159 78.9482 182.145 78.9482ZM450.588 98.0996C444.321 98.0997 438.788 99.5667 433.988 102.5C429.188 105.3 425.388 109.3 422.588 114.5C419.921 119.567 418.588 125.433 418.588 132.1C418.588 138.766 419.921 144.634 422.588 149.7C425.388 154.767 429.188 158.767 433.988 161.7C438.788 164.5 444.321 165.9 450.588 165.9C456.855 165.9 462.722 164.5 468.188 161.7C473.788 158.767 478.722 154.767 482.988 149.7C487.255 144.634 490.588 138.766 492.988 132.1C490.588 125.433 487.255 119.567 482.988 114.5C478.722 109.3 473.788 105.3 468.188 102.5C462.722 99.5667 456.855 98.0996 450.588 98.0996ZM862.697 98.0996C856.431 98.0997 850.898 99.5667 846.098 102.5C841.298 105.3 837.497 109.3 834.697 114.5C832.031 119.567 830.697 125.433 830.697 132.1C830.697 138.766 832.031 144.634 834.697 149.7C837.497 154.767 841.298 158.767 846.098 161.7C850.898 164.5 856.431 165.9 862.697 165.9C868.964 165.9 874.831 164.5 880.298 161.7C885.898 158.767 890.831 154.767 895.098 149.7C899.364 144.634 902.698 138.766 905.098 132.1C902.698 125.433 899.364 119.567 895.098 114.5C890.831 109.3 885.898 105.3 880.298 102.5C874.831 99.5667 868.964 98.0996 862.697 98.0996ZM1176.96 98.0996C1170.69 98.0997 1165.16 99.5667 1160.36 102.5C1155.56 105.3 1151.76 109.3 1148.96 114.5C1146.29 119.567 1144.96 125.433 1144.96 132.1C1144.96 138.766 1146.29 144.634 1148.96 149.7C1151.76 154.767 1155.56 158.767 1160.36 161.7C1165.16 164.5 1170.69 165.9 1176.96 165.9C1183.22 165.9 1189.09 164.5 1194.56 161.7C1200.16 158.767 1205.09 154.767 1209.36 149.7C1213.62 144.634 1216.96 138.766 1219.36 132.1C1216.96 125.433 1213.62 119.567 1209.36 114.5C1205.09 109.3 1200.16 105.3 1194.56 102.5C1189.09 99.5667 1183.22 98.0996 1176.96 98.0996ZM168.975 95.7725C160.313 95.7725 153.29 102.795 153.29 111.457C153.29 120.119 160.313 127.141 168.975 127.141C177.636 127.14 184.658 120.119 184.658 111.457C184.658 102.795 177.636 95.7727 168.975 95.7725Z" fill="black"/>
</svg>
